# This file uses centimeters as units for non-parametric coordinates.

mtllib road_intersection.mtl
v -10.000000 -0.050000 50.000000
v 10.000000 -0.050000 50.000000
v -10.000000 0.050000 50.000000
v 10.000000 0.050000 50.000000
v -10.000000 0.050000 -50.000000
v 10.000000 0.050000 -50.000000
v -10.000000 -0.050000 -50.000000
v 10.000000 -0.050000 -50.000000
v 10.000000 0.050000 -30.000000
v -10.000000 0.050000 -30.000000
v -10.000000 -0.050000 -30.000000
v 10.000000 -0.050000 -30.000000
v 10.000000 0.050000 -10.000000
v -10.000000 0.050000 -10.000000
v -10.000000 -0.050000 -10.000000
v 10.000000 -0.050000 -10.000000
v 10.000000 0.050000 10.000002
v -10.000000 0.050000 10.000002
v -10.000000 -0.050000 10.000002
v 10.000000 -0.050000 10.000002
v 10.000000 0.050000 30.000000
v -10.000000 0.050000 30.000000
v -10.000000 -0.050000 30.000000
v 10.000000 -0.050000 30.000000
v 10.000000 0.050000 -30.000000
v -10.000000 0.050000 -30.000000
v -10.000000 -0.050000 -30.000000
v 10.000000 -0.050000 -30.000000
v 10.000000 0.050000 -10.000000
v -10.000000 0.050000 -10.000000
v -10.000000 -0.050000 -10.000000
v 10.000000 -0.050000 -10.000000
v 10.000000 0.050000 10.000002
v -10.000000 0.050000 10.000002
v -10.000000 -0.050000 10.000002
v 10.000000 -0.050000 10.000002
v 10.000000 0.050000 30.000000
v -10.000000 0.050000 30.000000
v -10.000000 -0.050000 30.000000
v 10.000000 -0.050000 30.000000
v -55.000000 -0.050000 -10.000000
v -55.000000 -0.050000 10.000002
v -55.000000 0.050000 10.000002
v -55.000000 0.050000 -10.000000
v 55.000000 -0.050000 10.000002
v 55.000000 0.050000 10.000002
v 55.000000 -0.050000 -10.000000
v 55.000000 0.050000 -10.000000
v -54.969002 0.025546 -9.140348
v -8.969000 0.025546 -9.140348
v -54.969002 0.525546 -9.140348
v -8.969000 0.525546 -9.140348
v -54.969002 0.525546 -10.140348
v -8.969000 0.525546 -10.140348
v -54.969002 0.025546 -10.140348
v -8.969000 0.025546 -10.140348
v -9.980818 0.525546 -9.140348
v -9.980818 0.525546 -10.140348
v -9.980818 0.025546 -10.140348
v -9.980818 0.025546 -9.140348
v -9.980818 0.525546 -49.969841
v -9.980818 0.025546 -49.969841
v -8.969000 0.525546 -49.969841
v -8.969000 0.025546 -49.969841
v -54.969002 0.025546 10.220212
v -8.969000 0.025546 10.220212
v -54.969002 0.525546 10.220212
v -8.969000 0.525546 10.220212
v -54.969002 0.525546 9.220212
v -8.969000 0.525546 9.220212
v -54.969002 0.025546 9.220212
v -8.969000 0.025546 9.220212
v -9.980818 0.525546 10.220212
v -9.980818 0.525546 9.220212
v -9.980818 0.025546 9.220212
v -9.980818 0.025546 10.220212
v -9.980818 0.025546 50.049702
v -9.980818 0.525546 50.049702
v -8.969000 0.025546 50.049702
v -8.969000 0.525546 50.049702
v 54.969002 0.025546 -9.140348
v 8.969000 0.025546 -9.140348
v 54.969002 0.525546 -9.140348
v 8.969000 0.525546 -9.140348
v 54.969002 0.525546 -10.140348
v 8.969000 0.525546 -10.140348
v 54.969002 0.025546 -10.140348
v 8.969000 0.025546 -10.140348
v 9.980818 0.525546 -9.140348
v 9.980818 0.525546 -10.140348
v 9.980818 0.025546 -10.140348
v 9.980818 0.025546 -9.140348
v 9.980818 0.525546 -49.969841
v 9.980818 0.025546 -49.969841
v 8.969000 0.525546 -49.969841
v 8.969000 0.025546 -49.969841
v 54.969002 0.025546 10.220212
v 8.969000 0.025546 10.220212
v 54.969002 0.525546 10.220212
v 8.969000 0.525546 10.220212
v 54.969002 0.525546 9.220212
v 8.969000 0.525546 9.220212
v 54.969002 0.025546 9.220212
v 8.969000 0.025546 9.220212
v 9.980818 0.525546 10.220212
v 9.980818 0.525546 9.220212
v 9.980818 0.025546 9.220212
v 9.980818 0.025546 10.220212
v 9.980818 0.025546 50.049702
v 9.980818 0.525546 50.049702
v 8.969000 0.025546 50.049702
v 8.969000 0.525546 50.049702
vt 0.375000 0.000000
vt 0.625000 0.000000
vt 0.375000 0.250000
vt 0.625000 0.250000
vt 0.375000 0.500000
vt 0.625000 0.500000
vt 0.375000 0.750000
vt 0.625000 0.750000
vt 0.375000 1.000000
vt 0.625000 1.000000
vt 0.875000 0.000000
vt 0.875000 0.250000
vt 0.125000 0.000000
vt 0.125000 0.250000
vt 0.625000 0.450000
vt 0.825000 0.250000
vt 0.175000 0.250000
vt 0.375000 0.450000
vt 0.175000 0.000000
vt 0.375000 0.800000
vt 0.625000 0.800000
vt 0.825000 0.000000
vt 0.625000 0.400000
vt 0.775000 0.250000
vt 0.225000 0.250000
vt 0.375000 0.400000
vt 0.225000 0.000000
vt 0.375000 0.850000
vt 0.625000 0.850000
vt 0.775000 0.000000
vt 0.625000 0.350000
vt 0.725000 0.250000
vt 0.275000 0.250000
vt 0.375000 0.350000
vt 0.275000 0.000000
vt 0.375000 0.900000
vt 0.625000 0.900000
vt 0.725000 0.000000
vt 0.625000 0.300000
vt 0.675000 0.250000
vt 0.325000 0.250000
vt 0.375000 0.300000
vt 0.325000 0.000000
vt 0.375000 0.950000
vt 0.625000 0.950000
vt 0.675000 0.000000
vt 0.000000 0.000000
vt 1.000000 0.000000
vt 1.000000 1.000000
vt 0.000000 1.000000
vt 0.000000 0.000000
vt 1.000000 0.000000
vt 1.000000 1.000000
vt 0.000000 1.000000
vt 0.000000 0.000000
vt 1.000000 0.000000
vt 1.000000 1.000000
vt 0.000000 1.000000
vt 0.000000 0.000000
vt 1.000000 0.000000
vt 1.000000 1.000000
vt 0.000000 1.000000
vt 0.000000 0.000000
vt 1.000000 0.000000
vt 1.000000 1.000000
vt 0.000000 1.000000
vt 0.000000 0.000000
vt 1.000000 0.000000
vt 1.000000 1.000000
vt 0.000000 1.000000
vt 0.000000 0.000000
vt 1.000000 0.000000
vt 1.000000 1.000000
vt 0.000000 1.000000
vt 0.000000 0.000000
vt 1.000000 0.000000
vt 1.000000 1.000000
vt 0.000000 1.000000
vt 0.000000 0.000000
vt 1.000000 0.000000
vt 1.000000 1.000000
vt 0.000000 1.000000
vt 0.000000 0.000000
vt 1.000000 0.000000
vt 1.000000 1.000000
vt 0.000000 1.000000
vt 0.000000 0.000000
vt 1.000000 0.000000
vt 1.000000 1.000000
vt 0.000000 1.000000
vt 0.000000 0.000000
vt 1.000000 0.000000
vt 1.000000 1.000000
vt 0.000000 1.000000
vt 0.000000 0.000000
vt 1.000000 0.000000
vt 1.000000 1.000000
vt 0.000000 1.000000
vt 0.000000 0.000000
vt 1.000000 0.000000
vt 1.000000 1.000000
vt 0.000000 1.000000
vt 0.000000 0.000000
vt 1.000000 0.000000
vt 1.000000 1.000000
vt 0.000000 1.000000
vt 0.000000 0.000000
vt 1.000000 0.000000
vt 1.000000 1.000000
vt 0.000000 1.000000
vt 0.225000 0.000000
vt 0.275000 0.000000
vt 0.275000 0.250000
vt 0.225000 0.250000
vt 0.725000 0.250000
vt 0.725000 0.000000
vt 0.775000 0.000000
vt 0.775000 0.250000
vt 0.375000 0.000000
vt 0.619501 0.000000
vt 0.619501 0.250000
vt 0.375000 0.250000
vt 0.619501 0.500000
vt 0.375000 0.500000
vt 0.619501 0.750000
vt 0.375000 0.750000
vt 0.619501 1.000000
vt 0.375000 1.000000
vt 0.625000 0.000000
vt 0.875000 0.000000
vt 0.875000 0.250000
vt 0.625000 0.250000
vt 0.125000 0.000000
vt 0.125000 0.250000
vt 0.625000 0.500000
vt 0.619501 0.750000
vt 0.619501 0.500000
vt 0.625000 0.500000
vt 0.625000 0.750000
vt 0.625000 0.750000
vt 0.625000 1.000000
vt 0.375000 0.000000
vt 0.619501 0.000000
vt 0.619501 0.250000
vt 0.375000 0.250000
vt 0.619501 0.500000
vt 0.375000 0.500000
vt 0.619501 0.750000
vt 0.375000 0.750000
vt 0.619501 1.000000
vt 0.375000 1.000000
vt 0.625000 0.000000
vt 0.875000 0.000000
vt 0.875000 0.250000
vt 0.625000 0.250000
vt 0.125000 0.000000
vt 0.125000 0.250000
vt 0.625000 0.500000
vt 0.625000 0.750000
vt 0.625000 1.000000
vt 0.619501 0.250000
vt 0.619501 0.000000
vt 0.625000 0.000000
vt 0.625000 0.250000
vt 0.375000 0.000000
vt 0.375000 0.250000
vt 0.619501 0.250000
vt 0.619501 0.000000
vt 0.375000 0.500000
vt 0.619501 0.500000
vt 0.375000 0.750000
vt 0.619501 0.750000
vt 0.375000 1.000000
vt 0.619501 1.000000
vt 0.625000 0.000000
vt 0.625000 0.250000
vt 0.875000 0.250000
vt 0.875000 0.000000
vt 0.125000 0.000000
vt 0.125000 0.250000
vt 0.625000 0.500000
vt 0.619501 0.750000
vt 0.625000 0.750000
vt 0.625000 0.500000
vt 0.619501 0.500000
vt 0.625000 1.000000
vt 0.625000 0.750000
vt 0.375000 0.000000
vt 0.375000 0.250000
vt 0.619501 0.250000
vt 0.619501 0.000000
vt 0.375000 0.500000
vt 0.619501 0.500000
vt 0.375000 0.750000
vt 0.619501 0.750000
vt 0.375000 1.000000
vt 0.619501 1.000000
vt 0.625000 0.000000
vt 0.625000 0.250000
vt 0.875000 0.250000
vt 0.875000 0.000000
vt 0.125000 0.000000
vt 0.125000 0.250000
vt 0.625000 0.500000
vt 0.625000 0.750000
vt 0.625000 1.000000
vt 0.619501 0.250000
vt 0.625000 0.250000
vt 0.625000 0.000000
vt 0.619501 0.000000
vn 0.000000 0.000000 1.000000
vn 0.000000 0.000000 1.000000
vn 0.000000 0.000000 1.000000
vn 0.000000 0.000000 1.000000
vn 0.000000 1.000000 0.000000
vn 0.000000 1.000000 0.000000
vn 0.000000 1.000000 0.000000
vn 0.000000 1.000000 0.000000
vn 0.000000 0.000000 -1.000000
vn 0.000000 0.000000 -1.000000
vn 0.000000 0.000000 -1.000000
vn 0.000000 0.000000 -1.000000
vn 0.000000 -1.000000 0.000000
vn 0.000000 -1.000000 0.000000
vn 0.000000 -1.000000 0.000000
vn 0.000000 -1.000000 0.000000
vn 1.000000 0.000000 0.000000
vn 1.000000 0.000000 0.000000
vn 1.000000 0.000000 0.000000
vn 1.000000 0.000000 0.000000
vn -1.000000 0.000000 0.000000
vn -1.000000 0.000000 0.000000
vn -1.000000 0.000000 0.000000
vn -1.000000 0.000000 0.000000
vn 0.000000 1.000000 -0.000000
vn 0.000000 1.000000 -0.000000
vn 0.000000 1.000000 -0.000000
vn 0.000000 1.000000 -0.000000
vn -1.000000 0.000000 0.000000
vn -1.000000 0.000000 0.000000
vn -1.000000 0.000000 0.000000
vn -1.000000 0.000000 0.000000
vn 0.000000 -1.000000 -0.000000
vn 0.000000 -1.000000 -0.000000
vn 0.000000 -1.000000 -0.000000
vn 0.000000 -1.000000 -0.000000
vn 1.000000 0.000000 0.000000
vn 1.000000 0.000000 0.000000
vn 1.000000 0.000000 0.000000
vn 1.000000 0.000000 0.000000
vn 0.000000 1.000000 0.000000
vn 0.000000 1.000000 0.000000
vn 0.000000 1.000000 0.000000
vn 0.000000 1.000000 0.000000
vn -1.000000 0.000000 0.000000
vn -1.000000 0.000000 0.000000
vn -1.000000 0.000000 0.000000
vn -1.000000 0.000000 0.000000
vn 0.000000 -1.000000 0.000000
vn 0.000000 -1.000000 0.000000
vn 0.000000 -1.000000 0.000000
vn 0.000000 -1.000000 0.000000
vn 1.000000 0.000000 0.000000
vn 1.000000 0.000000 0.000000
vn 1.000000 0.000000 0.000000
vn 1.000000 0.000000 0.000000
vn 0.000000 1.000000 0.000000
vn 0.000000 1.000000 0.000000
vn 0.000000 1.000000 0.000000
vn 0.000000 1.000000 0.000000
vn -1.000000 0.000000 0.000000
vn -1.000000 0.000000 0.000000
vn -1.000000 0.000000 0.000000
vn -1.000000 0.000000 0.000000
vn 0.000000 -1.000000 0.000000
vn 0.000000 -1.000000 0.000000
vn 0.000000 -1.000000 0.000000
vn 0.000000 -1.000000 0.000000
vn 1.000000 0.000000 0.000000
vn 1.000000 0.000000 0.000000
vn 1.000000 0.000000 0.000000
vn 1.000000 0.000000 0.000000
vn 0.000000 1.000000 0.000000
vn 0.000000 1.000000 0.000000
vn 0.000000 1.000000 0.000000
vn 0.000000 1.000000 0.000000
vn -1.000000 0.000000 0.000000
vn -1.000000 0.000000 0.000000
vn -1.000000 0.000000 0.000000
vn -1.000000 0.000000 0.000000
vn 0.000000 -1.000000 0.000000
vn 0.000000 -1.000000 0.000000
vn 0.000000 -1.000000 0.000000
vn 0.000000 -1.000000 0.000000
vn 1.000000 0.000000 0.000000
vn 1.000000 0.000000 0.000000
vn 1.000000 0.000000 0.000000
vn 1.000000 0.000000 0.000000
vn 0.000000 0.000000 0.000000
vn 0.000000 0.000000 0.000000
vn 0.000000 0.000000 0.000000
vn 0.000000 0.000000 0.000000
vn 0.000000 0.000000 0.000000
vn 0.000000 0.000000 0.000000
vn 0.000000 0.000000 0.000000
vn 0.000000 0.000000 0.000000
vn 0.000000 0.000000 0.000000
vn 0.000000 0.000000 0.000000
vn 0.000000 0.000000 0.000000
vn 0.000000 0.000000 0.000000
vn 0.000000 0.000000 0.000000
vn 0.000000 0.000000 0.000000
vn 0.000000 0.000000 0.000000
vn 0.000000 0.000000 0.000000
vn 0.000000 0.000000 0.000000
vn 0.000000 0.000000 0.000000
vn 0.000000 0.000000 0.000000
vn 0.000000 0.000000 0.000000
vn 0.000000 0.000000 0.000000
vn 0.000000 0.000000 0.000000
vn 0.000000 0.000000 0.000000
vn 0.000000 0.000000 0.000000
vn 0.000000 0.000000 0.000000
vn 0.000000 0.000000 0.000000
vn 0.000000 0.000000 0.000000
vn 0.000000 0.000000 0.000000
vn 0.000000 0.000000 0.000000
vn 0.000000 0.000000 0.000000
vn 0.000000 0.000000 0.000000
vn 0.000000 0.000000 0.000000
vn 0.000000 0.000000 0.000000
vn 0.000000 0.000000 0.000000
vn 0.000000 0.000000 0.000000
vn 0.000000 0.000000 0.000000
vn 0.000000 0.000000 0.000000
vn 0.000000 0.000000 0.000000
vn 0.000000 0.000000 0.000000
vn 0.000000 0.000000 0.000000
vn 0.000000 0.000000 0.000000
vn 0.000000 0.000000 0.000000
vn 0.000000 0.000000 0.000000
vn 0.000000 0.000000 0.000000
vn 0.000000 0.000000 0.000000
vn 0.000000 0.000000 0.000000
vn 0.000000 0.000000 0.000000
vn 0.000000 0.000000 0.000000
vn 0.000000 0.000000 0.000000
vn 0.000000 0.000000 0.000000
vn 0.000000 0.000000 0.000000
vn 0.000000 0.000000 0.000000
vn 0.000000 0.000000 0.000000
vn 0.000000 0.000000 0.000000
vn 0.000000 0.000000 0.000000
vn 0.000000 0.000000 0.000000
vn 0.000000 0.000000 0.000000
vn 0.000000 0.000000 0.000000
vn 0.000000 0.000000 0.000000
vn 0.000000 0.000000 0.000000
vn 0.000000 0.000000 0.000000
vn 0.000000 0.000000 0.000000
vn 0.000000 0.000000 0.000000
vn 0.000000 0.000000 0.000000
vn 0.000000 -1.000000 0.000000
vn 0.000000 -1.000000 0.000000
vn 0.000000 0.000000 1.000000
vn 0.000000 0.000000 1.000000
vn 0.000000 0.000000 1.000000
vn 0.000000 0.000000 1.000000
vn 0.000000 1.000000 0.000000
vn 0.000000 1.000000 0.000000
vn 0.000000 0.000000 -1.000000
vn 0.000000 0.000000 -1.000000
vn 0.000000 0.000000 -1.000000
vn 0.000000 0.000000 -1.000000
vn 0.000000 0.000000 1.000000
vn 0.000000 0.000000 1.000000
vn 0.000000 0.000000 1.000000
vn 0.000000 0.000000 1.000000
vn 0.000000 -1.000000 0.000000
vn 0.000000 -1.000000 0.000000
vn 0.000000 0.000000 -1.000000
vn 0.000000 0.000000 -1.000000
vn 0.000000 0.000000 -1.000000
vn 0.000000 0.000000 -1.000000
vn 0.000000 1.000000 0.000000
vn 0.000000 1.000000 0.000000
vn 0.000000 0.000000 1.000000
vn 0.000000 0.000000 1.000000
vn 0.000000 0.000000 1.000000
vn 0.000000 0.000000 1.000000
vn 0.000000 1.000000 0.000000
vn 0.000000 1.000000 0.000000
vn 0.000000 1.000000 0.000000
vn 0.000000 1.000000 0.000000
vn 0.000000 0.000000 -1.000000
vn 0.000000 0.000000 -1.000000
vn 0.000000 0.000000 -1.000000
vn 0.000000 0.000000 -1.000000
vn 0.000000 -1.000000 0.000000
vn 0.000000 -1.000000 0.000000
vn 0.000000 -1.000000 0.000000
vn 0.000000 -1.000000 0.000000
vn 1.000000 0.000000 0.000000
vn 1.000000 0.000000 0.000000
vn 1.000000 0.000000 0.000000
vn 1.000000 0.000000 0.000000
vn -1.000000 0.000000 0.000000
vn -1.000000 0.000000 0.000000
vn -1.000000 0.000000 0.000000
vn -1.000000 0.000000 0.000000
vn 0.000000 1.000000 0.000000
vn 0.000000 1.000000 0.000000
vn 0.000000 0.000000 -1.000000
vn 0.000000 0.000000 -1.000000
vn 0.000000 0.000000 -1.000000
vn 0.000000 0.000000 -1.000000
vn 0.000000 -1.000000 0.000000
vn 0.000000 -1.000000 0.000000
vn 0.000000 0.000000 1.000000
vn 0.000000 0.000000 1.000000
vn -1.000000 0.000000 0.000000
vn -1.000000 0.000000 0.000000
vn -1.000000 0.000000 0.000000
vn -1.000000 0.000000 0.000000
vn 0.000000 1.000000 0.000000
vn 0.000000 1.000000 0.000000
vn 1.000000 0.000000 0.000000
vn 1.000000 0.000000 0.000000
vn 0.000000 -1.000000 0.000000
vn 0.000000 -1.000000 0.000000
vn 0.000000 0.000000 1.000000
vn 0.000000 0.000000 1.000000
vn 0.000000 0.000000 1.000000
vn 0.000000 0.000000 1.000000
vn 0.000000 1.000000 0.000000
vn 0.000000 1.000000 0.000000
vn 0.000000 1.000000 0.000000
vn 0.000000 1.000000 0.000000
vn 0.000000 0.000000 -1.000000
vn 0.000000 0.000000 -1.000000
vn 0.000000 0.000000 -1.000000
vn 0.000000 0.000000 -1.000000
vn 0.000000 -1.000000 0.000000
vn 0.000000 -1.000000 0.000000
vn 0.000000 -1.000000 0.000000
vn 0.000000 -1.000000 0.000000
vn 1.000000 0.000000 0.000000
vn 1.000000 0.000000 0.000000
vn 1.000000 0.000000 0.000000
vn 1.000000 0.000000 0.000000
vn -1.000000 0.000000 0.000000
vn -1.000000 0.000000 0.000000
vn -1.000000 0.000000 0.000000
vn -1.000000 0.000000 0.000000
vn 0.000000 1.000000 0.000000
vn 0.000000 1.000000 0.000000
vn 0.000000 0.000000 -1.000000
vn 0.000000 0.000000 -1.000000
vn 0.000000 -1.000000 0.000000
vn 0.000000 -1.000000 0.000000
vn 0.000000 0.000000 1.000000
vn 0.000000 0.000000 1.000000
vn 0.000000 0.000000 1.000000
vn 0.000000 0.000000 1.000000
vn -1.000000 0.000000 0.000000
vn -1.000000 0.000000 0.000000
vn -1.000000 0.000000 0.000000
vn -1.000000 0.000000 0.000000
vn 0.000000 -1.000000 0.000000
vn 0.000000 -1.000000 0.000000
vn 1.000000 0.000000 0.000000
vn 1.000000 0.000000 0.000000
vn 0.000000 1.000000 0.000000
vn 0.000000 1.000000 0.000000
vn 0.000000 0.000000 1.000000
vn 0.000000 0.000000 1.000000
vn 0.000000 0.000000 1.000000
vn 0.000000 0.000000 1.000000
vn 0.000000 1.000000 0.000000
vn 0.000000 1.000000 0.000000
vn 0.000000 1.000000 0.000000
vn 0.000000 1.000000 0.000000
vn 0.000000 0.000000 -1.000000
vn 0.000000 0.000000 -1.000000
vn 0.000000 0.000000 -1.000000
vn 0.000000 0.000000 -1.000000
vn 0.000000 -1.000000 0.000000
vn 0.000000 -1.000000 0.000000
vn 0.000000 -1.000000 0.000000
vn 0.000000 -1.000000 0.000000
vn -1.000000 0.000000 0.000000
vn -1.000000 0.000000 0.000000
vn -1.000000 0.000000 0.000000
vn -1.000000 0.000000 0.000000
vn 1.000000 0.000000 0.000000
vn 1.000000 0.000000 0.000000
vn 1.000000 0.000000 0.000000
vn 1.000000 0.000000 0.000000
vn 0.000000 1.000000 0.000000
vn 0.000000 1.000000 0.000000
vn 0.000000 0.000000 -1.000000
vn 0.000000 0.000000 -1.000000
vn 0.000000 0.000000 -1.000000
vn 0.000000 0.000000 -1.000000
vn 0.000000 -1.000000 0.000000
vn 0.000000 -1.000000 0.000000
vn 0.000000 0.000000 1.000000
vn 0.000000 0.000000 1.000000
vn 1.000000 0.000000 0.000000
vn 1.000000 0.000000 0.000000
vn 1.000000 0.000000 0.000000
vn 1.000000 0.000000 0.000000
vn 0.000000 1.000000 0.000000
vn 0.000000 1.000000 0.000000
vn -1.000000 0.000000 0.000000
vn -1.000000 0.000000 0.000000
vn 0.000000 -1.000000 0.000000
vn 0.000000 -1.000000 0.000000
vn 0.000000 0.000000 1.000000
vn 0.000000 0.000000 1.000000
vn 0.000000 0.000000 1.000000
vn 0.000000 0.000000 1.000000
vn 0.000000 1.000000 0.000000
vn 0.000000 1.000000 0.000000
vn 0.000000 1.000000 0.000000
vn 0.000000 1.000000 0.000000
vn 0.000000 0.000000 -1.000000
vn 0.000000 0.000000 -1.000000
vn 0.000000 0.000000 -1.000000
vn 0.000000 0.000000 -1.000000
vn 0.000000 -1.000000 0.000000
vn 0.000000 -1.000000 0.000000
vn 0.000000 -1.000000 0.000000
vn 0.000000 -1.000000 0.000000
vn -1.000000 0.000000 0.000000
vn -1.000000 0.000000 0.000000
vn -1.000000 0.000000 0.000000
vn -1.000000 0.000000 0.000000
vn 1.000000 0.000000 0.000000
vn 1.000000 0.000000 0.000000
vn 1.000000 0.000000 0.000000
vn 1.000000 0.000000 0.000000
vn 0.000000 1.000000 0.000000
vn 0.000000 1.000000 0.000000
vn 0.000000 0.000000 -1.000000
vn 0.000000 0.000000 -1.000000
vn 0.000000 -1.000000 0.000000
vn 0.000000 -1.000000 0.000000
vn 0.000000 0.000000 1.000000
vn 0.000000 0.000000 1.000000
vn 0.000000 0.000000 1.000000
vn 0.000000 0.000000 1.000000
vn 1.000000 0.000000 0.000000
vn 1.000000 0.000000 0.000000
vn 1.000000 0.000000 0.000000
vn 1.000000 0.000000 0.000000
vn 0.000000 -1.000000 0.000000
vn 0.000000 -1.000000 0.000000
vn -1.000000 0.000000 0.000000
vn -1.000000 0.000000 0.000000
vn 0.000000 1.000000 0.000000
vn 0.000000 1.000000 0.000000
s off
usemtl initialShadingGroup
f 1/1/1 2/2/2 4/4/3 3/3/4
f 3/3/5 4/4/6 21/39/7 22/42/8
f 5/5/9 6/6/10 8/8/11 7/7/12
f 23/44/13 24/45/14 2/10/15 1/9/16
f 2/2/17 24/46/18 21/40/19 4/4/20
f 23/43/21 1/1/22 3/3/23 22/41/24
f 10/18/25 9/15/26 6/6/27 5/5/28
f 7/13/29 11/19/30 10/17/31 5/14/32
f 7/7/33 8/8/34 12/21/35 11/20/36
f 9/16/37 12/22/38 8/11/39 6/12/40
f 14/26/41 13/23/42 9/15/43 10/18/44
f 11/19/45 15/27/46 14/25/47 10/17/48
f 11/20/49 12/21/50 16/29/51 15/28/52
f 13/24/53 16/30/54 12/22/55 9/16/56
s 1
f 18/34/57 17/31/58 13/23/59 14/26/60
s off
f 41/111/61 42/112/62 43/113/63 44/114/64
s 2
f 15/28/65 16/29/66 20/37/67 19/36/68
s off
f 46/115/69 45/116/70 47/117/71 48/118/72
f 22/42/73 21/39/74 17/31/75 18/34/76
f 19/35/77 23/43/78 22/41/79 18/33/80
f 19/36/81 20/37/82 24/45/83 23/44/84
f 21/40/85 24/46/86 20/38/87 17/32/88
f 9/47/89 10/48/90 26/49/91 25/50/92
f 10/51/93 11/52/94 27/53/95 26/54/96
f 11/55/97 12/56/98 28/57/99 27/58/100
f 12/59/101 9/60/102 25/61/103 28/62/104
f 13/63/105 14/64/106 30/65/107 29/66/108
f 14/67/109 15/68/110 31/69/111 30/70/112
f 15/71/113 16/72/114 32/73/115 31/74/116
f 16/75/117 13/76/118 29/77/119 32/78/120
f 17/79/121 18/80/122 34/81/123 33/82/124
f 18/83/125 19/84/126 35/85/127 34/86/128
f 19/87/129 20/88/130 36/89/131 35/90/132
f 20/91/133 17/92/134 33/93/135 36/94/136
f 21/95/137 22/96/138 38/97/139 37/98/140
f 22/99/141 23/100/142 39/101/143 38/102/144
f 23/103/145 24/104/146 40/105/147 39/106/148
f 24/107/149 21/108/150 37/109/151 40/110/152
s 2
f 15/27/65 19/35/68 42/112/153 41/111/154
s off
f 19/35/155 18/33/156 43/113/157 42/112/158
s 1
f 18/33/57 14/25/60 44/114/159 43/113/160
s off
f 14/25/161 15/27/162 41/111/163 44/114/164
f 17/32/165 20/38/166 45/116/167 46/115/168
s 2
f 20/38/67 16/30/66 47/117/169 45/116/170
s off
f 16/30/171 13/24/172 48/118/173 47/117/174
s 1
f 13/24/59 17/32/58 46/115/175 48/118/176
s 3
f 49/119/177 60/120/178 57/121/179 51/122/180
s 4
f 51/122/181 57/121/182 58/123/183 53/124/184
s off
f 53/124/185 58/123/186 59/125/187 55/126/188
s 5
f 55/126/189 59/125/190 60/127/191 49/128/192
s 6
f 50/129/193 56/130/194 54/131/195 52/132/196
s off
f 55/133/197 49/119/198 51/122/199 53/134/200
s 4
f 57/121/182 52/132/201 54/135/202 58/123/183
s off
f 62/136/203 61/137/204 63/138/205 64/139/206
s 5
f 60/127/191 59/125/190 56/140/207 50/141/208
s 3
f 57/121/179 60/120/178 50/129/209 52/132/210
s off
f 59/125/211 58/123/212 61/137/213 62/136/214
s 4
f 58/123/183 54/135/202 63/138/215 61/137/216
s 6
f 54/135/195 56/140/194 64/139/217 63/138/218
s 5
f 56/140/207 59/125/190 62/136/219 64/139/220
s off
f 65/142/221 76/143/222 73/144/223 67/145/224
s 7
f 67/145/225 73/144/226 74/146/227 69/147/228
s 8
f 69/147/229 74/146/230 75/148/231 71/149/232
s 9
f 71/149/233 75/148/234 76/150/235 65/151/236
s 10
f 66/152/237 72/153/238 70/154/239 68/155/240
s off
f 71/156/241 65/142/242 67/145/243 69/157/244
s 7
f 73/144/226 68/155/245 70/158/246 74/146/227
s 8
f 75/148/231 74/146/230 70/158/247 72/159/248
s 9
f 76/150/235 75/148/234 72/159/249 66/160/250
s off
f 78/161/251 77/162/252 79/163/253 80/164/254
f 73/144/255 76/143/256 77/162/257 78/161/258
s 9
f 76/143/235 66/152/250 79/163/259 77/162/260
s 10
f 66/152/237 68/155/240 80/164/261 79/163/262
s 7
f 68/155/245 73/144/226 78/161/263 80/164/264
s 11
f 81/165/265 83/166/266 89/167/267 92/168/268
s 12
f 83/166/269 85/169/270 90/170/271 89/167/272
s off
f 85/169/273 87/171/274 91/172/275 90/170/276
s 13
f 87/171/277 81/173/278 92/174/279 91/172/280
s 14
f 82/175/281 84/176/282 86/177/283 88/178/284
s off
f 87/179/285 85/180/286 83/166/287 81/165/288
s 12
f 89/167/272 90/170/271 86/181/289 84/176/290
s off
f 94/182/291 96/183/292 95/184/293 93/185/294
s 13
f 92/174/279 82/186/295 88/187/296 91/172/280
s 11
f 89/167/267 84/176/297 82/175/298 92/168/268
s off
f 91/172/299 94/182/300 93/185/301 90/170/302
s 12
f 90/170/271 93/185/303 95/184/304 86/181/289
s 14
f 86/181/283 95/184/305 96/183/306 88/187/284
s 13
f 88/187/296 96/183/307 94/182/308 91/172/280
s off
f 97/188/309 99/189/310 105/190/311 108/191/312
s 15
f 99/189/313 101/192/314 106/193/315 105/190/316
s 16
f 101/192/317 103/194/318 107/195/319 106/193/320
s 17
f 103/194/321 97/196/322 108/197/323 107/195/324
s 18
f 98/198/325 100/199/326 102/200/327 104/201/328
s off
f 103/202/329 101/203/330 99/189/331 97/188/332
s 15
f 105/190/316 106/193/315 102/204/333 100/199/334
s 16
f 107/195/319 104/205/335 102/204/336 106/193/320
s 17
f 108/197/323 98/206/337 104/205/338 107/195/324
s off
f 110/207/339 112/208/340 111/209/341 109/210/342
f 105/190/343 110/207/344 109/210/345 108/191/346
s 17
f 108/191/323 109/210/347 111/209/348 98/198/337
s 18
f 98/198/325 111/209/349 112/208/350 100/199/326
s 15
f 100/199/334 112/208/351 110/207/352 105/190/316
