# This file uses centimeters as units for non-parametric coordinates.

mtllib window_frame.mtl
v 0.000001 0.000000 -4.683439
v -4.683439 0.000000 -0.000000
v -0.000000 0.000000 4.683439
v 4.683439 0.000000 0.000000
v 0.000001 0.050000 -4.929933
v -4.929933 0.050000 -0.000000
v -0.000000 0.050000 4.929933
v 4.929933 0.050000 0.000000
v 0.000001 -0.000000 -5.176442
v -5.176442 -0.000000 -0.000000
v -0.000000 -0.000000 5.176442
v 5.176442 -0.000000 0.000000
v 0.000001 -0.050000 -4.929933
v -4.929933 -0.050000 -0.000000
v -0.000000 -0.050000 4.929933
v 4.929933 -0.050000 0.000000
vt 0.000000 1.000000
vt 0.250000 1.000000
vt 0.500000 1.000000
vt 0.750000 1.000000
vt 1.000000 1.000000
vt 0.000000 0.750000
vt 0.250000 0.750000
vt 0.500000 0.750000
vt 0.750000 0.750000
vt 1.000000 0.750000
vt 0.000000 0.500000
vt 0.250000 0.500000
vt 0.500000 0.500000
vt 0.750000 0.500000
vt 1.000000 0.500000
vt 0.000000 0.250000
vt 0.250000 0.250000
vt 0.500000 0.250000
vt 0.750000 0.250000
vt 1.000000 0.250000
vt 0.000000 0.000000
vt 0.250000 0.000000
vt 0.500000 0.000000
vt 0.750000 0.000000
vt 1.000000 0.000000
vn 0.194981 0.961231 0.194981
vn 0.194981 0.961231 0.194981
vn 0.194981 0.961231 0.194981
vn 0.194981 0.961231 0.194981
vn 0.194981 0.961231 -0.194981
vn 0.194981 0.961231 -0.194981
vn 0.194981 0.961231 -0.194981
vn 0.194981 0.961231 -0.194981
vn -0.194981 0.961231 -0.194981
vn -0.194981 0.961231 -0.194981
vn -0.194981 0.961231 -0.194981
vn -0.194981 0.961231 -0.194981
vn -0.194981 0.961231 0.194981
vn -0.194981 0.961231 0.194981
vn -0.194981 0.961231 0.194981
vn -0.194981 0.961231 0.194981
vn -0.194969 0.961236 -0.194969
vn -0.194969 0.961236 -0.194969
vn -0.194969 0.961236 -0.194969
vn -0.194969 0.961236 -0.194969
vn -0.194969 0.961236 0.194969
vn -0.194969 0.961236 0.194969
vn -0.194969 0.961236 0.194969
vn -0.194969 0.961236 0.194969
vn 0.194969 0.961236 0.194969
vn 0.194969 0.961236 0.194969
vn 0.194969 0.961236 0.194969
vn 0.194969 0.961236 0.194969
vn 0.194969 0.961236 -0.194969
vn 0.194969 0.961236 -0.194969
vn 0.194969 0.961236 -0.194969
vn 0.194969 0.961236 -0.194969
vn -0.194969 -0.961236 -0.194969
vn -0.194969 -0.961236 -0.194969
vn -0.194969 -0.961236 -0.194969
vn -0.194969 -0.961236 -0.194969
vn -0.194969 -0.961236 0.194969
vn -0.194969 -0.961236 0.194969
vn -0.194969 -0.961236 0.194969
vn -0.194969 -0.961236 0.194969
vn 0.194969 -0.961236 0.194969
vn 0.194969 -0.961236 0.194969
vn 0.194969 -0.961236 0.194969
vn 0.194969 -0.961236 0.194969
vn 0.194969 -0.961236 -0.194969
vn 0.194969 -0.961236 -0.194969
vn 0.194969 -0.961236 -0.194969
vn 0.194969 -0.961236 -0.194969
vn 0.194981 -0.961231 0.194981
vn 0.194981 -0.961231 0.194981
vn 0.194981 -0.961231 0.194981
vn 0.194981 -0.961231 0.194981
vn 0.194981 -0.961231 -0.194981
vn 0.194981 -0.961231 -0.194981
vn 0.194981 -0.961231 -0.194981
vn 0.194981 -0.961231 -0.194981
vn -0.194981 -0.961231 -0.194981
vn -0.194981 -0.961231 -0.194981
vn -0.194981 -0.961231 -0.194981
vn -0.194981 -0.961231 -0.194981
vn -0.194981 -0.961231 0.194981
vn -0.194981 -0.961231 0.194981
vn -0.194981 -0.961231 0.194981
vn -0.194981 -0.961231 0.194981
s off
usemtl initialShadingGroup
f 2/2/1 1/1/2 5/6/3 6/7/4
f 3/3/5 2/2/6 6/7/7 7/8/8
f 4/4/9 3/3/10 7/8/11 8/9/12
f 1/5/13 4/4/14 8/9/15 5/10/16
f 6/7/17 5/6/18 9/11/19 10/12/20
f 7/8/21 6/7/22 10/12/23 11/13/24
f 8/9/25 7/8/26 11/13/27 12/14/28
f 5/10/29 8/9/30 12/14/31 9/15/32
f 10/12/33 9/11/34 13/16/35 14/17/36
f 11/13/37 10/12/38 14/17/39 15/18/40
f 12/14/41 11/13/42 15/18/43 16/19/44
f 9/15/45 12/14/46 16/19/47 13/20/48
f 14/17/49 13/16/50 1/21/51 2/22/52
f 15/18/53 14/17/54 2/22/55 3/23/56
f 16/19/57 15/18/58 3/23/59 4/24/60
f 13/20/61 16/19/62 4/24/63 1/25/64
