# This file uses centimeters as units for non-parametric coordinates.

mtllib painKiller.mtl
v 0.250000 -0.850000 -0.433013
v -0.250000 -0.850000 -0.433013
v -0.500000 -0.850000 -0.000000
v -0.250000 -0.850000 0.433013
v 0.250000 -0.850000 0.433013
v 0.500000 -0.850000 0.000000
v 0.250000 0.850000 -0.433013
v -0.250000 0.850000 -0.433013
v -0.500000 0.850000 -0.000000
v -0.250000 0.850000 0.433013
v 0.250000 0.850000 0.433013
v 0.500000 0.850000 0.000000
v 0.000000 -0.850000 0.000000
v 0.000000 0.850000 0.000000
v 0.250000 0.297734 -0.433013
v 0.500000 0.297734 0.000000
v 0.250000 0.297734 0.433013
v -0.250000 0.297734 0.433013
v -0.500000 0.297734 -0.000000
v -0.250000 0.297734 -0.433013
v 0.307232 0.297734 -0.532141
v 0.614463 0.297734 0.000000
v 0.307232 0.850000 -0.532141
v 0.614463 0.850000 0.000000
v 0.307232 0.297734 0.532141
v 0.307232 0.850000 0.532141
v -0.307232 0.297734 0.532141
v -0.307232 0.850000 0.532141
v -0.614463 0.297734 -0.000000
v -0.614463 0.850000 -0.000000
v -0.307231 0.297734 -0.532141
v -0.307231 0.850000 -0.532141
v -0.307231 0.391904 -0.532141
v 0.307232 0.391904 -0.532141
v 0.614463 0.391904 0.000000
v 0.307232 0.391904 0.532141
v -0.307232 0.391904 0.532141
v -0.614463 0.391904 -0.000000
v 0.330436 0.297734 -0.572332
v 0.660872 0.297734 0.000000
v 0.330436 0.391904 -0.572332
v 0.660872 0.391904 0.000000
v 0.330436 0.297734 0.572332
v 0.330436 0.391904 0.572332
v -0.330436 0.297734 0.572332
v -0.330436 0.391904 0.572332
v -0.660872 0.297734 -0.000000
v -0.660872 0.391904 -0.000000
v -0.330436 0.297734 -0.572332
v -0.330436 0.391904 -0.572332
v 0.047701 0.790084 0.396442
v 0.047701 0.790084 -0.396442
v 0.047701 0.920108 0.396442
v 0.047701 0.920108 -0.396442
v -0.047701 0.920108 0.396442
v -0.047701 0.920108 -0.396442
v -0.047701 0.790084 0.396442
v -0.047701 0.790084 -0.396442
v -0.396442 0.790084 0.047701
v 0.396442 0.790084 0.047701
v -0.396442 0.920108 0.047701
v 0.396442 0.920108 0.047701
v -0.396442 0.920108 -0.047701
v 0.396442 0.920108 -0.047701
v -0.396442 0.790084 -0.047701
v 0.396442 0.790084 -0.047701
vt 0.578125 0.020934
vt 0.421875 0.020934
vt 0.343750 0.156250
vt 0.421875 0.291566
vt 0.578125 0.291566
vt 0.656250 0.156250
vt 0.375000 0.312500
vt 0.416667 0.312500
vt 0.458333 0.312500
vt 0.500000 0.312500
vt 0.541667 0.312500
vt 0.583333 0.312500
vt 0.625000 0.312500
vt 0.375000 0.688440
vt 0.416667 0.688440
vt 0.458333 0.688440
vt 0.500000 0.688440
vt 0.541667 0.688440
vt 0.583333 0.688440
vt 0.625000 0.688440
vt 0.578125 0.708434
vt 0.421875 0.708434
vt 0.343750 0.843750
vt 0.421875 0.979066
vt 0.578125 0.979066
vt 0.656250 0.843750
vt 0.500000 0.150000
vt 0.500000 0.837500
vt 0.625000 0.566311
vt 0.375000 0.566311
vt 0.583333 0.566311
vt 0.541667 0.566311
vt 0.500000 0.566311
vt 0.458333 0.566311
vt 0.416667 0.566311
vt 0.583333 0.566311
vt 0.625000 0.566311
vt 0.625000 0.688440
vt 0.583333 0.688440
vt 0.541667 0.566311
vt 0.541667 0.688440
vt 0.500000 0.566311
vt 0.500000 0.688440
vt 0.458333 0.566311
vt 0.458333 0.688440
vt 0.416667 0.566311
vt 0.416667 0.688440
vt 0.375000 0.566311
vt 0.375000 0.688440
vt 0.416667 0.587136
vt 0.625000 0.587136
vt 0.375000 0.587136
vt 0.583333 0.587136
vt 0.541667 0.587136
vt 0.500000 0.587136
vt 0.458333 0.587136
vt 0.583333 0.566311
vt 0.625000 0.566311
vt 0.625000 0.587136
vt 0.583333 0.587136
vt 0.541667 0.566311
vt 0.541667 0.587136
vt 0.500000 0.566311
vt 0.500000 0.587136
vt 0.458333 0.566311
vt 0.458333 0.587136
vt 0.416667 0.566311
vt 0.416667 0.587136
vt 0.375000 0.566311
vt 0.375000 0.587136
vt 0.375000 0.000000
vt 0.625000 0.000000
vt 0.625000 0.250000
vt 0.375000 0.250000
vt 0.625000 0.500000
vt 0.375000 0.500000
vt 0.625000 0.750000
vt 0.375000 0.750000
vt 0.625000 1.000000
vt 0.375000 1.000000
vt 0.875000 0.000000
vt 0.875000 0.250000
vt 0.125000 0.000000
vt 0.125000 0.250000
vt 0.375000 0.000000
vt 0.625000 0.000000
vt 0.625000 0.250000
vt 0.375000 0.250000
vt 0.625000 0.500000
vt 0.375000 0.500000
vt 0.625000 0.750000
vt 0.375000 0.750000
vt 0.625000 1.000000
vt 0.375000 1.000000
vt 0.875000 0.000000
vt 0.875000 0.250000
vt 0.125000 0.000000
vt 0.125000 0.250000
vn 0.000000 0.000000 -1.000000
vn 0.000000 0.000000 -1.000000
vn 0.000000 0.000000 -1.000000
vn 0.000000 0.000000 -1.000000
vn -0.866025 0.000000 -0.500000
vn -0.866025 0.000000 -0.500000
vn -0.866025 0.000000 -0.500000
vn -0.866025 0.000000 -0.500000
vn -0.866026 0.000000 0.500000
vn -0.866026 0.000000 0.500000
vn -0.866026 0.000000 0.500000
vn -0.866026 0.000000 0.500000
vn -0.000000 0.000000 1.000000
vn -0.000000 0.000000 1.000000
vn -0.000000 0.000000 1.000000
vn -0.000000 0.000000 1.000000
vn 0.866025 0.000000 0.500000
vn 0.866025 0.000000 0.500000
vn 0.866025 0.000000 0.500000
vn 0.866025 0.000000 0.500000
vn 0.866026 0.000000 -0.500000
vn 0.866026 0.000000 -0.500000
vn 0.866026 0.000000 -0.500000
vn 0.866026 0.000000 -0.500000
vn 0.000000 -1.000000 0.000000
vn 0.000000 -1.000000 0.000000
vn 0.000000 -1.000000 -0.000000
vn 0.000000 -1.000000 0.000000
vn 0.000000 -1.000000 -0.000000
vn 0.000000 -1.000000 -0.000000
vn 0.000000 -1.000000 0.000000
vn 0.000000 1.000000 -0.000000
vn 0.000000 1.000000 -0.000000
vn 0.000000 1.000000 -0.000000
vn 0.000000 1.000000 0.000000
vn 0.000000 1.000000 0.000000
vn 0.000000 1.000000 0.000000
vn 0.000000 1.000000 0.000000
vn 0.866026 0.000000 -0.500000
vn 0.866026 0.000000 -0.500000
vn 0.866026 0.000000 -0.500000
vn 0.866026 0.000000 -0.500000
vn 0.866026 0.000000 0.500000
vn 0.866026 0.000000 0.500000
vn 0.866026 0.000000 0.500000
vn 0.866026 0.000000 0.500000
vn -0.000000 0.000000 1.000000
vn -0.000000 0.000000 1.000000
vn -0.000000 0.000000 1.000000
vn -0.000000 0.000000 1.000000
vn -0.866025 0.000000 0.500000
vn -0.866025 0.000000 0.500000
vn -0.866025 0.000000 0.500000
vn -0.866025 0.000000 0.500000
vn -0.866025 0.000000 -0.500000
vn -0.866025 0.000000 -0.500000
vn -0.866025 0.000000 -0.500000
vn -0.866025 0.000000 -0.500000
vn 0.000000 -0.000000 -1.000000
vn 0.000000 -0.000000 -1.000000
vn 0.000000 -0.000000 -1.000000
vn 0.000000 -0.000000 -1.000000
vn 0.000000 -1.000000 0.000000
vn 0.000000 -1.000000 0.000000
vn 0.000000 -1.000000 -0.000000
vn 0.000000 -1.000000 0.000000
vn 0.000000 1.000000 -0.000000
vn 0.000000 1.000000 -0.000000
vn 0.000000 -1.000000 -0.000000
vn 0.000000 -1.000000 0.000000
vn 0.000000 1.000000 0.000000
vn 0.000000 -1.000000 -0.000000
vn 0.000000 -1.000000 0.000000
vn 0.000000 1.000000 0.000000
vn 0.000000 -1.000000 0.000000
vn 0.000000 -1.000000 -0.000000
vn 0.000000 1.000000 0.000000
vn 0.000000 -1.000000 0.000000
vn 0.000000 -1.000000 -0.000000
vn 0.000000 1.000000 -0.000000
vn 0.000000 0.000000 -1.000000
vn 0.000000 0.000000 -1.000000
vn 0.000000 0.000000 -1.000000
vn 0.000000 0.000000 -1.000000
vn 0.866026 0.000000 -0.500000
vn 0.866026 0.000000 -0.500000
vn 0.866026 0.000000 -0.500000
vn 0.866026 0.000000 -0.500000
vn 0.866025 0.000000 0.500000
vn 0.866025 0.000000 0.500000
vn 0.866025 0.000000 0.500000
vn 0.866025 0.000000 0.500000
vn -0.000000 -0.000000 1.000000
vn -0.000000 -0.000000 1.000000
vn -0.000000 -0.000000 1.000000
vn -0.000000 -0.000000 1.000000
vn -0.866026 -0.000000 0.500000
vn -0.866026 -0.000000 0.500000
vn -0.866026 -0.000000 0.500000
vn -0.866026 -0.000000 0.500000
vn -0.866025 0.000000 -0.500000
vn -0.866025 0.000000 -0.500000
vn -0.866025 0.000000 -0.500000
vn -0.866025 0.000000 -0.500000
vn 0.000000 -1.000000 -0.000001
vn 0.000000 -1.000000 0.000000
vn 0.000000 1.000000 -0.000000
vn 0.000000 1.000000 -0.000000
vn 0.000000 1.000000 -0.000000
vn 0.000000 1.000000 -0.000000
vn 0.000000 -1.000000 0.000001
vn 0.000000 1.000000 -0.000000
vn 0.000000 1.000000 -0.000000
vn 0.000000 -1.000000 0.000000
vn 0.000000 1.000000 -0.000000
vn 0.000000 1.000000 -0.000000
vn 0.000000 -1.000000 -0.000000
vn 0.000000 1.000000 -0.000000
vn 0.000000 1.000000 -0.000000
vn 0.000000 -1.000000 -0.000001
vn 0.000000 1.000000 -0.000000
vn 0.000000 1.000000 -0.000000
vn 1.000000 0.000000 0.000000
vn 1.000000 0.000000 0.000000
vn 1.000000 0.000000 0.000000
vn 1.000000 0.000000 0.000000
vn 0.000000 1.000000 0.000000
vn 0.000000 1.000000 0.000000
vn 0.000000 1.000000 0.000000
vn 0.000000 1.000000 0.000000
vn -1.000000 0.000000 0.000000
vn -1.000000 0.000000 0.000000
vn -1.000000 0.000000 0.000000
vn -1.000000 0.000000 0.000000
vn 0.000000 -1.000000 0.000000
vn 0.000000 -1.000000 0.000000
vn 0.000000 -1.000000 0.000000
vn 0.000000 -1.000000 0.000000
vn 0.000000 0.000000 -1.000000
vn 0.000000 0.000000 -1.000000
vn 0.000000 0.000000 -1.000000
vn 0.000000 0.000000 -1.000000
vn 0.000000 0.000000 1.000000
vn 0.000000 0.000000 1.000000
vn 0.000000 0.000000 1.000000
vn 0.000000 0.000000 1.000000
vn 0.000000 0.000000 1.000000
vn 0.000000 0.000000 1.000000
vn 0.000000 0.000000 1.000000
vn 0.000000 0.000000 1.000000
vn 0.000000 1.000000 0.000000
vn 0.000000 1.000000 0.000000
vn 0.000000 1.000000 0.000000
vn 0.000000 1.000000 0.000000
vn 0.000000 0.000000 -1.000000
vn 0.000000 0.000000 -1.000000
vn 0.000000 0.000000 -1.000000
vn 0.000000 0.000000 -1.000000
vn 0.000000 -1.000000 0.000000
vn 0.000000 -1.000000 0.000000
vn 0.000000 -1.000000 0.000000
vn 0.000000 -1.000000 0.000000
vn 1.000000 0.000000 0.000000
vn 1.000000 0.000000 0.000000
vn 1.000000 0.000000 0.000000
vn 1.000000 0.000000 0.000000
vn -1.000000 0.000000 0.000000
vn -1.000000 0.000000 0.000000
vn -1.000000 0.000000 0.000000
vn -1.000000 0.000000 0.000000
s off
usemtl initialShadingGroup
f 1/7/1 2/8/2 20/35/3 15/30/4
f 2/8/5 3/9/6 19/34/7 20/35/8
f 3/9/9 4/10/10 18/33/11 19/34/12
f 4/10/13 5/11/14 17/32/15 18/33/16
f 5/11/17 6/12/18 16/31/19 17/32/20
f 6/12/21 1/13/22 15/29/23 16/31/24
s 1
f 2/2/25 1/1/26 13/27/27
f 3/3/28 2/2/25 13/27/27
f 4/4/29 3/3/28 13/27/27
f 5/5/30 4/4/29 13/27/27
f 6/6/31 5/5/30 13/27/27
f 1/1/26 6/6/31 13/27/27
s 2
f 7/25/32 8/24/33 14/28/34
f 8/24/33 9/23/35 14/28/34
f 9/23/35 10/22/36 14/28/34
f 10/22/36 11/21/37 14/28/34
f 11/21/37 12/26/38 14/28/34
f 12/26/38 7/25/32 14/28/34
s off
f 40/57/39 39/58/40 41/59/41 42/60/42
f 43/61/43 40/57/44 42/60/45 44/62/46
f 45/63/47 43/61/48 44/62/49 46/64/50
f 47/65/51 45/63/52 46/64/53 48/66/54
f 49/67/55 47/65/56 48/66/57 50/68/58
f 39/69/59 49/67/60 50/68/61 41/70/62
s 3
f 16/31/63 15/29/64 21/37/65 22/36/66
s 2
f 7/20/32 12/19/38 24/39/67 23/38/68
s 3
f 17/32/69 16/31/63 22/36/66 25/40/70
s 2
f 12/19/38 11/18/37 26/41/71 24/39/67
s 3
f 18/33/72 17/32/69 25/40/70 27/42/73
s 2
f 11/18/37 10/17/36 28/43/74 26/41/71
s 3
f 19/34/75 18/33/72 27/42/73 29/44/76
s 2
f 10/17/36 9/16/35 30/45/77 28/43/74
s 3
f 20/35/78 19/34/75 29/44/76 31/46/79
s 2
f 9/16/35 8/15/33 32/47/80 30/45/77
s 3
f 15/30/64 20/35/78 31/46/79 21/48/65
s 2
f 8/15/33 7/14/32 23/49/68 32/47/80
s off
f 34/52/81 33/50/82 32/47/83 23/49/84
f 35/53/85 34/51/86 23/38/87 24/39/88
f 36/54/89 35/53/90 24/39/91 26/41/92
f 37/55/93 36/54/94 26/41/95 28/43/96
f 38/56/97 37/55/98 28/43/99 30/45/100
f 33/50/101 38/56/102 30/45/103 32/47/104
s 3
f 22/36/66 21/37/65 39/58/105 40/57/106
s 4
f 34/51/107 35/53/108 42/60/109 41/59/110
s 3
f 25/40/70 22/36/66 40/57/106 43/61/111
s 4
f 35/53/108 36/54/112 44/62/113 42/60/109
s 3
f 27/42/73 25/40/70 43/61/111 45/63/114
s 4
f 36/54/112 37/55/115 46/64/116 44/62/113
s 3
f 29/44/76 27/42/73 45/63/114 47/65/117
s 4
f 37/55/115 38/56/118 48/66/119 46/64/116
s 3
f 31/46/79 29/44/76 47/65/117 49/67/120
s 4
f 38/56/118 33/50/121 50/68/122 48/66/119
s 3
f 21/48/65 31/46/79 49/67/120 39/69/105
s 4
f 33/50/121 34/52/107 41/70/110 50/68/122
s off
usemtl redcross:initialShadingGroup
f 51/71/123 52/72/124 54/73/125 53/74/126
f 53/74/127 54/73/128 56/75/129 55/76/130
f 55/76/131 56/75/132 58/77/133 57/78/134
f 57/78/135 58/77/136 52/79/137 51/80/138
f 52/72/139 58/81/140 56/82/141 54/73/142
f 57/83/143 51/71/144 53/74/145 55/84/146
f 59/85/147 60/86/148 62/87/149 61/88/150
f 61/88/151 62/87/152 64/89/153 63/90/154
f 63/90/155 64/89/156 66/91/157 65/92/158
f 65/92/159 66/91/160 60/93/161 59/94/162
f 60/86/163 66/95/164 64/96/165 62/87/166
f 65/97/167 59/85/168 61/88/169 63/98/170
