# This file uses centimeters as units for non-parametric coordinates.

mtllib tree1.mtl
v 2.493761 5.551563 -2.493761
v 0.000000 5.551563 -3.526711
v -2.493761 5.551563 -2.493761
v -3.526711 5.551563 0.000000
v -2.493761 5.551563 2.493761
v 0.000000 5.551563 3.526711
v 2.493762 5.551563 2.493762
v 3.526711 5.551563 0.000000
v 4.034991 8.328028 -4.034991
v 0.000000 8.328028 -5.706339
v -4.034991 8.328028 -4.034991
v -5.706339 8.328028 0.000000
v -4.034991 8.328028 4.034991
v 0.000000 8.328028 5.706339
v 4.034991 8.328028 4.034991
v 5.706339 8.328028 0.000000
v 4.034991 12.036232 -4.034991
v 0.000000 12.036232 -5.706339
v -4.034991 12.036232 -4.034991
v -5.706339 12.036232 0.000000
v -4.034991 12.036232 4.034991
v 0.000000 12.036232 5.706339
v 4.034991 12.036232 4.034991
v 5.706339 12.036232 0.000000
v 2.493761 14.812696 -2.493761
v 0.000000 14.812696 -3.526711
v -2.493761 14.812696 -2.493761
v -3.526711 14.812696 0.000000
v -2.493761 14.812696 2.493761
v 0.000000 14.812696 3.526711
v 2.493762 14.812696 2.493762
v 3.526711 14.812696 0.000000
v 0.000000 5.048797 0.000000
v 0.000000 15.315463 0.000000
v 1.377170 14.089729 -1.377170
v 0.000000 14.089729 -1.947613
v -1.377170 14.089729 -1.377170
v -1.947613 14.089729 0.000000
v -1.377170 14.089729 1.377170
v 0.000000 14.089729 1.947613
v 1.377170 14.089729 1.377170
v 1.947613 14.089729 0.000000
v 2.228308 15.623021 -2.228308
v 0.000000 15.623021 -3.151304
v -2.228308 15.623021 -2.228308
v -3.151304 15.623021 0.000000
v -2.228308 15.623021 2.228308
v 0.000000 15.623021 3.151304
v 2.228309 15.623021 2.228309
v 3.151304 15.623021 0.000000
v 2.228308 17.670862 -2.228308
v 0.000000 17.670862 -3.151304
v -2.228308 17.670862 -2.228308
v -3.151304 17.670862 0.000000
v -2.228308 17.670862 2.228308
v 0.000000 17.670862 3.151304
v 2.228309 17.670862 2.228309
v 3.151304 17.670862 0.000000
v 1.377170 19.204155 -1.377170
v 0.000000 19.204155 -1.947613
v -1.377170 19.204155 -1.377170
v -1.947613 19.204155 0.000000
v -1.377170 19.204155 1.377170
v 0.000000 19.204155 1.947613
v 1.377170 19.204155 1.377170
v 1.947613 19.204155 0.000000
v 0.000000 13.812078 0.000000
v 0.000000 19.481806 0.000000
v 0.489935 -7.499998 -1.756879
v -1.575398 -7.499998 -1.085809
v -1.575398 -7.499998 1.085809
v 0.489935 -7.499998 1.756879
v 1.766381 -7.499998 0.000000
v 0.309017 7.499998 -0.951057
v -0.809017 7.499998 -0.587785
v -0.809017 7.499998 0.587785
v 0.309017 7.499998 0.951057
v 1.000000 7.499998 0.000000
v 0.000000 -7.499998 0.000000
v 0.000000 7.499998 0.000000
v 0.309017 -3.555328 0.951057
v -0.809017 -3.555328 0.587785
v -0.809017 -3.555328 -0.587785
v 0.309017 -3.555328 -0.951057
v 1.000000 -3.555328 0.000000
vt 0.000000 0.200000
vt 0.125000 0.200000
vt 0.125000 0.400000
vt 0.000000 0.400000
vt 0.250000 0.200000
vt 0.250000 0.400000
vt 0.375000 0.200000
vt 0.375000 0.400000
vt 0.500000 0.200000
vt 0.500000 0.400000
vt 0.625000 0.200000
vt 0.625000 0.400000
vt 0.750000 0.200000
vt 0.750000 0.400000
vt 0.875000 0.200000
vt 0.875000 0.400000
vt 1.000000 0.200000
vt 1.000000 0.400000
vt 0.125000 0.600000
vt 0.000000 0.600000
vt 0.250000 0.600000
vt 0.375000 0.600000
vt 0.500000 0.600000
vt 0.625000 0.600000
vt 0.750000 0.600000
vt 0.875000 0.600000
vt 1.000000 0.600000
vt 0.125000 0.800000
vt 0.000000 0.800000
vt 0.250000 0.800000
vt 0.375000 0.800000
vt 0.500000 0.800000
vt 0.625000 0.800000
vt 0.750000 0.800000
vt 0.875000 0.800000
vt 1.000000 0.800000
vt 0.062500 0.000000
vt 0.187500 0.000000
vt 0.312500 0.000000
vt 0.437500 0.000000
vt 0.562500 0.000000
vt 0.687500 0.000000
vt 0.812500 0.000000
vt 0.937500 0.000000
vt 0.062500 1.000000
vt 0.187500 1.000000
vt 0.312500 1.000000
vt 0.437500 1.000000
vt 0.562500 1.000000
vt 0.687500 1.000000
vt 0.812500 1.000000
vt 0.937500 1.000000
vt 0.000000 0.200000
vt 0.125000 0.200000
vt 0.125000 0.400000
vt 0.000000 0.400000
vt 0.250000 0.200000
vt 0.250000 0.400000
vt 0.375000 0.200000
vt 0.375000 0.400000
vt 0.500000 0.200000
vt 0.500000 0.400000
vt 0.625000 0.200000
vt 0.625000 0.400000
vt 0.750000 0.200000
vt 0.750000 0.400000
vt 0.875000 0.200000
vt 0.875000 0.400000
vt 1.000000 0.200000
vt 1.000000 0.400000
vt 0.125000 0.600000
vt 0.000000 0.600000
vt 0.250000 0.600000
vt 0.375000 0.600000
vt 0.500000 0.600000
vt 0.625000 0.600000
vt 0.750000 0.600000
vt 0.875000 0.600000
vt 1.000000 0.600000
vt 0.125000 0.800000
vt 0.000000 0.800000
vt 0.250000 0.800000
vt 0.375000 0.800000
vt 0.500000 0.800000
vt 0.625000 0.800000
vt 0.750000 0.800000
vt 0.875000 0.800000
vt 1.000000 0.800000
vt 0.062500 0.000000
vt 0.187500 0.000000
vt 0.312500 0.000000
vt 0.437500 0.000000
vt 0.562500 0.000000
vt 0.687500 0.000000
vt 0.812500 0.000000
vt 0.937500 0.000000
vt 0.062500 1.000000
vt 0.187500 1.000000
vt 0.312500 1.000000
vt 0.437500 1.000000
vt 0.562500 1.000000
vt 0.687500 1.000000
vt 0.812500 1.000000
vt 0.937500 1.000000
vt 0.375000 0.312500
vt 0.425000 0.312500
vt 0.425000 0.688440
vt 0.375000 0.688440
vt 0.475000 0.312500
vt 0.475000 0.688440
vt 0.525000 0.312500
vt 0.525000 0.688440
vt 0.575000 0.312500
vt 0.575000 0.688440
vt 0.625000 0.312500
vt 0.625000 0.688440
vt 0.373591 0.064409
vt 0.548284 0.007647
vt 0.500000 0.150000
vt 0.373591 0.248091
vt 0.548284 0.304853
vt 0.656250 0.156250
vt 0.548284 0.992353
vt 0.373591 0.935591
vt 0.500000 0.837500
vt 0.373591 0.751909
vt 0.548284 0.695147
vt 0.656250 0.843750
vt 0.525000 0.411364
vt 0.475000 0.411364
vt 0.425000 0.411364
vt 0.375000 0.411364
vt 0.625000 0.411364
vt 0.575000 0.411364
vn 0.309783 -0.587116 -0.747883
vn 0.309783 -0.587116 -0.747883
vn 0.309783 -0.587116 -0.747883
vn 0.309783 -0.587116 -0.747883
vn -0.309783 -0.587116 -0.747883
vn -0.309783 -0.587116 -0.747883
vn -0.309783 -0.587116 -0.747883
vn -0.309783 -0.587116 -0.747883
vn -0.747883 -0.587116 -0.309783
vn -0.747883 -0.587116 -0.309783
vn -0.747883 -0.587116 -0.309783
vn -0.747883 -0.587116 -0.309783
vn -0.747883 -0.587116 0.309783
vn -0.747883 -0.587116 0.309783
vn -0.747883 -0.587116 0.309783
vn -0.747883 -0.587116 0.309783
vn -0.309783 -0.587116 0.747883
vn -0.309783 -0.587116 0.747883
vn -0.309783 -0.587116 0.747883
vn -0.309783 -0.587116 0.747883
vn 0.309783 -0.587116 0.747883
vn 0.309783 -0.587116 0.747883
vn 0.309783 -0.587116 0.747883
vn 0.309783 -0.587116 0.747883
vn 0.747883 -0.587116 0.309783
vn 0.747883 -0.587116 0.309783
vn 0.747883 -0.587116 0.309783
vn 0.747883 -0.587116 0.309783
vn 0.747883 -0.587116 -0.309783
vn 0.747883 -0.587116 -0.309783
vn 0.747883 -0.587116 -0.309783
vn 0.747883 -0.587116 -0.309783
vn 0.382683 0.000000 -0.923880
vn 0.382683 0.000000 -0.923880
vn 0.382683 0.000000 -0.923880
vn 0.382683 0.000000 -0.923880
vn -0.382683 0.000000 -0.923880
vn -0.382683 0.000000 -0.923880
vn -0.382683 0.000000 -0.923880
vn -0.382683 0.000000 -0.923880
vn -0.923880 0.000000 -0.382683
vn -0.923880 0.000000 -0.382683
vn -0.923880 0.000000 -0.382683
vn -0.923880 0.000000 -0.382683
vn -0.923880 0.000000 0.382683
vn -0.923880 0.000000 0.382683
vn -0.923880 0.000000 0.382683
vn -0.923880 0.000000 0.382683
vn -0.382683 0.000000 0.923880
vn -0.382683 0.000000 0.923880
vn -0.382683 0.000000 0.923880
vn -0.382683 0.000000 0.923880
vn 0.382683 0.000000 0.923880
vn 0.382683 0.000000 0.923880
vn 0.382683 0.000000 0.923880
vn 0.382683 0.000000 0.923880
vn 0.923880 0.000000 0.382683
vn 0.923880 0.000000 0.382683
vn 0.923880 0.000000 0.382683
vn 0.923880 0.000000 0.382683
vn 0.923879 0.000000 -0.382684
vn 0.923879 0.000000 -0.382684
vn 0.923879 0.000000 -0.382684
vn 0.923879 0.000000 -0.382684
vn 0.309783 0.587116 -0.747883
vn 0.309783 0.587116 -0.747883
vn 0.309783 0.587116 -0.747883
vn 0.309783 0.587116 -0.747883
vn -0.309783 0.587116 -0.747883
vn -0.309783 0.587116 -0.747883
vn -0.309783 0.587116 -0.747883
vn -0.309783 0.587116 -0.747883
vn -0.747883 0.587116 -0.309783
vn -0.747883 0.587116 -0.309783
vn -0.747883 0.587116 -0.309783
vn -0.747883 0.587116 -0.309783
vn -0.747883 0.587116 0.309783
vn -0.747883 0.587116 0.309783
vn -0.747883 0.587116 0.309783
vn -0.747883 0.587116 0.309783
vn -0.309783 0.587116 0.747883
vn -0.309783 0.587116 0.747883
vn -0.309783 0.587116 0.747883
vn -0.309783 0.587116 0.747883
vn 0.309783 0.587116 0.747883
vn 0.309783 0.587116 0.747883
vn 0.309783 0.587116 0.747883
vn 0.309783 0.587116 0.747883
vn 0.747883 0.587116 0.309783
vn 0.747883 0.587116 0.309783
vn 0.747883 0.587116 0.309783
vn 0.747883 0.587116 0.309783
vn 0.747883 0.587116 -0.309783
vn 0.747883 0.587116 -0.309783
vn 0.747883 0.587116 -0.309783
vn 0.747883 0.587116 -0.309783
vn 0.058359 -0.988303 -0.140892
vn 0.058359 -0.988303 -0.140892
vn 0.058359 -0.988303 -0.140892
vn -0.058359 -0.988303 -0.140892
vn -0.058359 -0.988303 -0.140892
vn -0.058359 -0.988303 -0.140892
vn -0.140892 -0.988303 -0.058359
vn -0.140892 -0.988303 -0.058359
vn -0.140892 -0.988303 -0.058359
vn -0.140892 -0.988303 0.058359
vn -0.140892 -0.988303 0.058359
vn -0.140892 -0.988303 0.058359
vn -0.058359 -0.988303 0.140892
vn -0.058359 -0.988303 0.140892
vn -0.058359 -0.988303 0.140892
vn 0.058359 -0.988303 0.140892
vn 0.058359 -0.988303 0.140892
vn 0.058359 -0.988303 0.140892
vn 0.140892 -0.988303 0.058359
vn 0.140892 -0.988303 0.058359
vn 0.140892 -0.988303 0.058359
vn 0.140892 -0.988303 -0.058359
vn 0.140892 -0.988303 -0.058359
vn 0.140892 -0.988303 -0.058359
vn 0.058359 0.988303 -0.140892
vn 0.058359 0.988303 -0.140892
vn 0.058359 0.988303 -0.140892
vn -0.058359 0.988303 -0.140892
vn -0.058359 0.988303 -0.140892
vn -0.058359 0.988303 -0.140892
vn -0.140892 0.988303 -0.058359
vn -0.140892 0.988303 -0.058359
vn -0.140892 0.988303 -0.058359
vn -0.140892 0.988303 0.058359
vn -0.140892 0.988303 0.058359
vn -0.140892 0.988303 0.058359
vn -0.058359 0.988303 0.140892
vn -0.058359 0.988303 0.140892
vn -0.058359 0.988303 0.140892
vn 0.058359 0.988303 0.140893
vn 0.058359 0.988303 0.140893
vn 0.058359 0.988303 0.140893
vn 0.140892 0.988303 0.058359
vn 0.140892 0.988303 0.058359
vn 0.140892 0.988303 0.058359
vn 0.140892 0.988303 -0.058359
vn 0.140892 0.988303 -0.058359
vn 0.140892 0.988303 -0.058359
vn 0.309783 -0.587116 -0.747883
vn 0.309783 -0.587116 -0.747883
vn 0.309783 -0.587116 -0.747883
vn 0.309783 -0.587116 -0.747883
vn -0.309784 -0.587116 -0.747883
vn -0.309783 -0.587116 -0.747883
vn -0.309784 -0.587117 -0.747882
vn -0.309784 -0.587117 -0.747882
vn -0.747883 -0.587116 -0.309783
vn -0.747883 -0.587116 -0.309783
vn -0.747883 -0.587116 -0.309783
vn -0.747883 -0.587116 -0.309783
vn -0.747883 -0.587116 0.309783
vn -0.747883 -0.587116 0.309783
vn -0.747883 -0.587116 0.309783
vn -0.747883 -0.587116 0.309783
vn -0.309784 -0.587116 0.747883
vn -0.309784 -0.587116 0.747883
vn -0.309784 -0.587117 0.747882
vn -0.309784 -0.587117 0.747882
vn 0.309783 -0.587116 0.747883
vn 0.309783 -0.587116 0.747883
vn 0.309783 -0.587116 0.747883
vn 0.309783 -0.587116 0.747883
vn 0.747883 -0.587116 0.309784
vn 0.747883 -0.587116 0.309784
vn 0.747883 -0.587116 0.309784
vn 0.747883 -0.587116 0.309784
vn 0.747883 -0.587116 -0.309783
vn 0.747883 -0.587116 -0.309783
vn 0.747883 -0.587116 -0.309783
vn 0.747883 -0.587116 -0.309783
vn 0.382683 0.000000 -0.923880
vn 0.382683 0.000000 -0.923880
vn 0.382683 0.000000 -0.923880
vn 0.382683 0.000000 -0.923880
vn -0.382683 0.000000 -0.923880
vn -0.382683 0.000000 -0.923880
vn -0.382683 0.000000 -0.923880
vn -0.382683 0.000000 -0.923880
vn -0.923880 0.000000 -0.382683
vn -0.923880 0.000000 -0.382683
vn -0.923880 0.000000 -0.382683
vn -0.923880 0.000000 -0.382683
vn -0.923880 0.000000 0.382683
vn -0.923880 0.000000 0.382683
vn -0.923880 0.000000 0.382683
vn -0.923880 0.000000 0.382683
vn -0.382683 0.000000 0.923880
vn -0.382683 0.000000 0.923880
vn -0.382683 0.000000 0.923880
vn -0.382683 0.000000 0.923880
vn 0.382683 0.000000 0.923880
vn 0.382683 0.000000 0.923880
vn 0.382683 0.000000 0.923880
vn 0.382683 0.000000 0.923880
vn 0.923880 0.000000 0.382683
vn 0.923880 0.000000 0.382683
vn 0.923880 0.000000 0.382683
vn 0.923880 0.000000 0.382683
vn 0.923880 0.000000 -0.382683
vn 0.923880 0.000000 -0.382683
vn 0.923880 0.000000 -0.382683
vn 0.923880 0.000000 -0.382683
vn 0.309784 0.587116 -0.747883
vn 0.309784 0.587116 -0.747883
vn 0.309784 0.587116 -0.747883
vn 0.309784 0.587116 -0.747883
vn -0.309783 0.587116 -0.747883
vn -0.309783 0.587116 -0.747883
vn -0.309783 0.587116 -0.747883
vn -0.309783 0.587116 -0.747883
vn -0.747883 0.587116 -0.309784
vn -0.747883 0.587116 -0.309784
vn -0.747883 0.587116 -0.309784
vn -0.747883 0.587116 -0.309784
vn -0.747883 0.587116 0.309783
vn -0.747883 0.587116 0.309783
vn -0.747883 0.587116 0.309783
vn -0.747883 0.587116 0.309783
vn -0.309783 0.587116 0.747883
vn -0.309783 0.587116 0.747883
vn -0.309783 0.587116 0.747883
vn -0.309783 0.587116 0.747883
vn 0.309784 0.587116 0.747883
vn 0.309784 0.587116 0.747883
vn 0.309784 0.587116 0.747883
vn 0.309784 0.587116 0.747883
vn 0.747883 0.587116 0.309783
vn 0.747883 0.587116 0.309783
vn 0.747883 0.587116 0.309783
vn 0.747883 0.587116 0.309783
vn 0.747883 0.587116 -0.309783
vn 0.747883 0.587116 -0.309783
vn 0.747883 0.587116 -0.309783
vn 0.747883 0.587116 -0.309783
vn 0.058359 -0.988303 -0.140893
vn 0.058359 -0.988303 -0.140893
vn 0.058359 -0.988303 -0.140893
vn -0.058359 -0.988303 -0.140893
vn -0.058359 -0.988303 -0.140893
vn -0.058359 -0.988303 -0.140893
vn -0.140892 -0.988303 -0.058359
vn -0.140892 -0.988303 -0.058359
vn -0.140892 -0.988303 -0.058359
vn -0.140892 -0.988303 0.058360
vn -0.140892 -0.988303 0.058360
vn -0.140892 -0.988303 0.058360
vn -0.058359 -0.988303 0.140893
vn -0.058359 -0.988303 0.140893
vn -0.058359 -0.988303 0.140893
vn 0.058359 -0.988303 0.140893
vn 0.058359 -0.988303 0.140893
vn 0.058359 -0.988303 0.140893
vn 0.140892 -0.988303 0.058359
vn 0.140892 -0.988303 0.058359
vn 0.140892 -0.988303 0.058359
vn 0.140892 -0.988303 -0.058360
vn 0.140892 -0.988303 -0.058360
vn 0.140892 -0.988303 -0.058360
vn 0.058359 0.988304 -0.140891
vn 0.058359 0.988304 -0.140891
vn 0.058359 0.988304 -0.140891
vn -0.058359 0.988304 -0.140891
vn -0.058359 0.988304 -0.140891
vn -0.058359 0.988304 -0.140891
vn -0.140892 0.988303 -0.058359
vn -0.140892 0.988303 -0.058359
vn -0.140892 0.988303 -0.058359
vn -0.140892 0.988303 0.058360
vn -0.140892 0.988303 0.058360
vn -0.140892 0.988303 0.058360
vn -0.058359 0.988304 0.140891
vn -0.058359 0.988304 0.140891
vn -0.058359 0.988304 0.140891
vn 0.058359 0.988304 0.140891
vn 0.058359 0.988304 0.140891
vn 0.058359 0.988304 0.140891
vn 0.140892 0.988303 0.058360
vn 0.140892 0.988303 0.058360
vn 0.140892 0.988303 0.058360
vn 0.140892 0.988303 -0.058360
vn 0.140892 0.988303 -0.058360
vn 0.140892 0.988303 -0.058360
vn -0.309017 0.000000 -0.951057
vn -0.309017 0.000000 -0.951057
vn -0.308383 0.064081 -0.949102
vn -0.308401 0.063167 -0.949157
vn -1.000000 0.000000 -0.000000
vn -1.000000 0.000000 -0.000000
vn -0.997644 0.068603 0.000000
vn -0.997644 0.068603 0.000000
vn -0.309017 0.000000 0.951057
vn -0.309017 0.000000 0.951057
vn -0.308401 0.063167 0.949157
vn -0.308383 0.064081 0.949102
vn 0.809017 0.000000 0.587785
vn 0.809017 0.000000 0.587785
vn 0.807779 0.055314 0.586885
vn 0.807756 0.055809 0.586869
vn 0.809017 0.000000 -0.587785
vn 0.809017 0.000000 -0.587785
vn 0.807756 0.055809 -0.586869
vn 0.807779 0.055314 -0.586885
vn 0.000000 -1.000000 -0.000001
vn 0.000000 -1.000000 -0.000001
vn 0.000000 -1.000000 0.000000
vn 0.000000 -1.000000 0.000001
vn 0.000000 -1.000000 -0.000001
vn 0.000000 -1.000000 0.000000
vn 0.000000 -1.000000 0.000001
vn 0.000000 -1.000000 0.000001
vn 0.000000 -1.000000 0.000000
vn 0.000000 -1.000000 0.000000
vn 0.000000 -1.000000 0.000001
vn 0.000000 -1.000000 0.000000
vn 0.000000 -1.000000 -0.000001
vn 0.000000 -1.000000 0.000000
vn 0.000000 -1.000000 0.000000
vn 0.000000 1.000000 -0.000001
vn 0.000000 1.000000 0.000000
vn 0.000000 1.000000 0.000000
vn 0.000000 1.000000 0.000000
vn 0.000000 1.000000 0.000001
vn 0.000000 1.000000 0.000000
vn 0.000000 1.000000 0.000001
vn 0.000000 1.000000 0.000001
vn 0.000000 1.000000 0.000000
vn 0.000000 1.000000 0.000001
vn 0.000000 1.000000 -0.000001
vn 0.000000 1.000000 0.000000
vn 0.000000 1.000000 -0.000001
vn 0.000000 1.000000 -0.000001
vn 0.000000 1.000000 0.000000
vn -0.309017 0.000000 0.951057
vn -0.309017 0.000000 0.951057
vn -1.000000 0.000000 -0.000000
vn -1.000000 0.000000 -0.000000
vn -0.309017 0.000000 -0.951057
vn -0.309017 0.000000 -0.951057
vn 0.809017 0.000000 -0.587785
vn 0.809017 0.000000 -0.587785
vn 0.809017 0.000000 0.587785
vn 0.809017 0.000000 0.587785
s off
usemtl tree:initialShadingGroup
f 1/1/1 2/2/2 10/3/3 9/4/4
f 2/2/5 3/5/6 11/6/7 10/3/8
f 3/5/9 4/7/10 12/8/11 11/6/12
f 4/7/13 5/9/14 13/10/15 12/8/16
f 5/9/17 6/11/18 14/12/19 13/10/20
f 6/11/21 7/13/22 15/14/23 14/12/24
f 7/13/25 8/15/26 16/16/27 15/14/28
f 8/15/29 1/17/30 9/18/31 16/16/32
f 9/4/33 10/3/34 18/19/35 17/20/36
f 10/3/37 11/6/38 19/21/39 18/19/40
f 11/6/41 12/8/42 20/22/43 19/21/44
f 12/8/45 13/10/46 21/23/47 20/22/48
f 13/10/49 14/12/50 22/24/51 21/23/52
f 14/12/53 15/14/54 23/25/55 22/24/56
f 15/14/57 16/16/58 24/26/59 23/25/60
f 16/16/61 9/18/62 17/27/63 24/26/64
f 17/20/65 18/19/66 26/28/67 25/29/68
f 18/19/69 19/21/70 27/30/71 26/28/72
f 19/21/73 20/22/74 28/31/75 27/30/76
f 20/22/77 21/23/78 29/32/79 28/31/80
f 21/23/81 22/24/82 30/33/83 29/32/84
f 22/24/85 23/25/86 31/34/87 30/33/88
f 23/25/89 24/26/90 32/35/91 31/34/92
f 24/26/93 17/27/94 25/36/95 32/35/96
f 2/2/97 1/1/98 33/37/99
f 3/5/100 2/2/101 33/38/102
f 4/7/103 3/5/104 33/39/105
f 5/9/106 4/7/107 33/40/108
f 6/11/109 5/9/110 33/41/111
f 7/13/112 6/11/113 33/42/114
f 8/15/115 7/13/116 33/43/117
f 1/17/118 8/15/119 33/44/120
f 25/29/121 26/28/122 34/45/123
f 26/28/124 27/30/125 34/46/126
f 27/30/127 28/31/128 34/47/129
f 28/31/130 29/32/131 34/48/132
f 29/32/133 30/33/134 34/49/135
f 30/33/136 31/34/137 34/50/138
f 31/34/139 32/35/140 34/51/141
f 32/35/142 25/36/143 34/52/144
f 35/53/145 36/54/146 44/55/147 43/56/148
f 36/54/149 37/57/150 45/58/151 44/55/152
f 37/57/153 38/59/154 46/60/155 45/58/156
f 38/59/157 39/61/158 47/62/159 46/60/160
f 39/61/161 40/63/162 48/64/163 47/62/164
f 40/63/165 41/65/166 49/66/167 48/64/168
f 41/65/169 42/67/170 50/68/171 49/66/172
f 42/67/173 35/69/174 43/70/175 50/68/176
f 43/56/177 44/55/178 52/71/179 51/72/180
f 44/55/181 45/58/182 53/73/183 52/71/184
f 45/58/185 46/60/186 54/74/187 53/73/188
f 46/60/189 47/62/190 55/75/191 54/74/192
f 47/62/193 48/64/194 56/76/195 55/75/196
f 48/64/197 49/66/198 57/77/199 56/76/200
f 49/66/201 50/68/202 58/78/203 57/77/204
f 50/68/205 43/70/206 51/79/207 58/78/208
f 51/72/209 52/71/210 60/80/211 59/81/212
f 52/71/213 53/73/214 61/82/215 60/80/216
f 53/73/217 54/74/218 62/83/219 61/82/220
f 54/74/221 55/75/222 63/84/223 62/83/224
f 55/75/225 56/76/226 64/85/227 63/84/228
f 56/76/229 57/77/230 65/86/231 64/85/232
f 57/77/233 58/78/234 66/87/235 65/86/236
f 58/78/237 51/79/238 59/88/239 66/87/240
f 36/54/241 35/53/242 67/89/243
f 37/57/244 36/54/245 67/90/246
f 38/59/247 37/57/248 67/91/249
f 39/61/250 38/59/251 67/92/252
f 40/63/253 39/61/254 67/93/255
f 41/65/256 40/63/257 67/94/258
f 42/67/259 41/65/260 67/95/261
f 35/69/262 42/67/263 67/96/264
f 59/81/265 60/80/266 68/97/267
f 60/80/268 61/82/269 68/98/270
f 61/82/271 62/83/272 68/99/273
f 62/83/274 63/84/275 68/100/276
f 63/84/277 64/85/278 68/101/279
f 64/85/280 65/86/281 68/102/282
f 65/86/283 66/87/284 68/103/285
f 66/87/286 59/88/287 68/104/288
s 1
f 69/105/289 70/106/290 83/131/291 84/132/292
s 2
f 70/106/293 71/109/294 82/130/295 83/131/296
s 3
f 71/109/297 72/111/298 81/129/299 82/130/300
s 4
f 72/111/301 73/113/302 85/134/303 81/129/304
s 5
f 73/113/305 69/115/306 84/133/307 85/134/308
s off
f 70/117/309 69/118/310 79/119/311
f 71/120/312 70/117/313 79/119/314
f 72/121/315 71/120/316 79/119/317
f 73/122/318 72/121/319 79/119/320
f 69/118/321 73/122/322 79/119/323
f 74/123/324 75/124/325 80/125/326
f 75/124/327 76/126/328 80/125/329
f 76/126/330 77/127/331 80/125/332
f 77/127/333 78/128/334 80/125/335
f 78/128/336 74/123/337 80/125/338
s 3
f 82/130/300 81/129/299 77/112/339 76/110/340
s 2
f 83/131/296 82/130/295 76/110/341 75/107/342
s 1
f 84/132/292 83/131/291 75/107/343 74/108/344
s 5
f 85/134/308 84/133/307 74/116/345 78/114/346
s 4
f 81/129/304 85/134/303 78/114/347 77/112/348
