# This file uses centimeters as units for non-parametric coordinates.

mtllib water.mtl
v 0.250000 -1.500000 -0.433013
v -0.250000 -1.500000 -0.433013
v -0.500000 -1.500000 -0.000000
v -0.250000 -1.500000 0.433013
v 0.250000 -1.500000 0.433013
v 0.500000 -1.500000 0.000000
v 0.077995 1.500000 -0.135091
v -0.077995 1.500000 -0.135091
v -0.155990 1.500000 -0.000000
v -0.077995 1.500000 0.135091
v 0.077995 1.500000 0.135091
v 0.155990 1.500000 -0.000000
v 0.000000 -1.500000 0.000000
v -0.500000 0.979110 -0.000000
v -0.250000 0.979110 -0.433013
v 0.250000 0.979110 -0.433013
v 0.500000 0.979110 0.000000
v 0.250000 0.979110 0.433013
v -0.250000 0.979110 0.433013
v -0.500000 0.146968 -0.000000
v -0.250000 0.146968 -0.433013
v 0.250000 0.146968 -0.433013
v 0.500000 0.146968 0.000000
v 0.250000 0.146968 0.433013
v -0.250000 0.146968 0.433013
v -0.421081 -0.130016 -0.000000
v -0.210540 -0.130016 -0.364667
v 0.210541 -0.130016 -0.364667
v 0.421081 -0.130016 0.000000
v 0.210540 -0.130016 0.364667
v -0.210540 -0.130016 0.364667
v -0.421081 -0.575866 -0.000000
v -0.210540 -0.575866 -0.364667
v 0.210541 -0.575866 -0.364667
v 0.421081 -0.575866 0.000000
v 0.210540 -0.575866 0.364667
v -0.210540 -0.575866 0.364667
v -0.500000 -0.873838 -0.000000
v -0.250000 -0.873838 -0.433013
v 0.250000 -0.873838 -0.433013
v 0.500000 -0.873838 0.000000
v 0.250000 -0.873838 0.433013
v -0.250000 -0.873838 0.433013
v 0.077995 1.755803 -0.135091
v -0.077995 1.755803 -0.135091
v 0.000000 1.755803 -0.000000
v -0.155990 1.755803 -0.000000
v -0.077995 1.755803 0.135091
v 0.077995 1.755803 0.135091
v 0.155990 1.755803 -0.000000
v -0.155990 1.579773 -0.000000
v -0.077995 1.579773 -0.135091
v 0.077995 1.579773 -0.135091
v 0.155990 1.579773 -0.000000
v 0.077995 1.579773 0.135091
v -0.077995 1.579773 0.135091
v 0.058404 1.500000 -0.101159
v -0.058404 1.500000 -0.101159
v -0.058404 1.579773 -0.101159
v 0.058404 1.579773 -0.101159
v -0.116809 1.500000 -0.000000
v -0.116809 1.579773 -0.000000
v -0.058404 1.500000 0.101159
v -0.058404 1.579773 0.101159
v 0.058404 1.500000 0.101159
v 0.058404 1.579773 0.101159
v 0.116809 1.500000 -0.000000
v 0.116809 1.579773 -0.000000
v -0.077995 1.720597 -0.135091
v 0.077995 1.720597 -0.135091
v 0.155990 1.720597 -0.000000
v 0.077995 1.720597 0.135091
v -0.077995 1.720597 0.135091
v -0.155990 1.720597 -0.000000
v -0.077995 1.685391 -0.135091
v 0.077995 1.685391 -0.135091
v 0.155990 1.685391 -0.000000
v 0.077995 1.685391 0.135091
v -0.077995 1.685391 0.135091
v -0.155990 1.685391 -0.000000
v -0.077995 1.650185 -0.135091
v 0.077995 1.650185 -0.135091
v 0.155990 1.650185 -0.000000
v 0.077995 1.650185 0.135091
v -0.077995 1.650185 0.135091
v -0.155990 1.650185 -0.000000
v -0.077995 1.614979 -0.135091
v 0.077995 1.614979 -0.135091
v 0.155990 1.614979 -0.000000
v 0.077995 1.614979 0.135091
v -0.077995 1.614979 0.135091
v -0.155990 1.614979 -0.000000
v -0.071865 1.685391 -0.124473
v 0.071865 1.685391 -0.124473
v -0.071865 1.720597 -0.124473
v 0.071865 1.720597 -0.124473
v 0.143729 1.685391 -0.000000
v 0.143729 1.720597 -0.000000
v 0.071865 1.685391 0.124473
v 0.071865 1.720597 0.124473
v -0.071865 1.685391 0.124473
v -0.071865 1.720597 0.124473
v -0.143729 1.685391 -0.000000
v -0.143729 1.720597 -0.000000
v -0.071865 1.614979 -0.124473
v 0.071865 1.614979 -0.124473
v -0.071865 1.650185 -0.124473
v 0.071865 1.650185 -0.124473
v 0.143729 1.614979 -0.000000
v 0.143729 1.650185 -0.000000
v 0.071865 1.614979 0.124473
v 0.071865 1.650185 0.124473
v -0.071865 1.614979 0.124473
v -0.071865 1.650185 0.124473
v -0.143729 1.614979 -0.000000
v -0.143729 1.650185 -0.000000
v -0.500000 0.146968 -0.000000
v -0.250000 0.146968 -0.433013
v 0.250000 0.146968 -0.433013
v 0.500000 0.146968 0.000000
v 0.250000 0.146968 0.433013
v -0.250000 0.146968 0.433013
v -0.500000 -0.873838 -0.000000
v -0.250000 -0.873838 -0.433013
v 0.250000 -0.873838 -0.433013
v 0.500000 -0.873838 0.000000
v 0.250000 -0.873838 0.433013
v -0.250000 -0.873838 0.433013
vt 0.578125 0.020934
vt 0.421875 0.020934
vt 0.343750 0.156250
vt 0.421875 0.291566
vt 0.578125 0.291566
vt 0.656250 0.156250
vt 0.375000 0.312500
vt 0.416667 0.312500
vt 0.458333 0.312500
vt 0.500000 0.312500
vt 0.541667 0.312500
vt 0.583333 0.312500
vt 0.625000 0.312500
vt 0.375000 0.688440
vt 0.416667 0.688440
vt 0.458333 0.688440
vt 0.500000 0.688440
vt 0.541667 0.688440
vt 0.583333 0.688440
vt 0.625000 0.688440
vt 0.578125 0.708434
vt 0.421875 0.708434
vt 0.343750 0.843750
vt 0.421875 0.979066
vt 0.578125 0.979066
vt 0.656250 0.843750
vt 0.500000 0.150000
vt 0.500000 0.837500
vt 0.458333 0.599983
vt 0.416667 0.599983
vt 0.625000 0.599983
vt 0.375000 0.599983
vt 0.583333 0.599983
vt 0.541667 0.599983
vt 0.500000 0.599983
vt 0.458333 0.511527
vt 0.416667 0.511527
vt 0.625000 0.511527
vt 0.375000 0.511527
vt 0.583333 0.511527
vt 0.541667 0.511527
vt 0.500000 0.511527
vt 0.458333 0.489413
vt 0.416667 0.489413
vt 0.625000 0.489413
vt 0.375000 0.489413
vt 0.583333 0.489413
vt 0.541667 0.489413
vt 0.500000 0.489413
vt 0.458333 0.423071
vt 0.416667 0.423071
vt 0.625000 0.423071
vt 0.375000 0.423071
vt 0.583333 0.423071
vt 0.541667 0.423071
vt 0.500000 0.423071
vt 0.458333 0.400956
vt 0.416667 0.400956
vt 0.625000 0.400956
vt 0.375000 0.400956
vt 0.583333 0.400956
vt 0.541667 0.400956
vt 0.500000 0.400956
vt 0.578125 0.979066
vt 0.421875 0.979066
vt 0.343750 0.843750
vt 0.421875 0.708434
vt 0.578125 0.708434
vt 0.656250 0.843750
vt 0.343750 0.843750
vt 0.421875 0.979066
vt 0.578125 0.979066
vt 0.656250 0.843750
vt 0.578125 0.708434
vt 0.421875 0.708434
vt 0.578125 0.979066
vt 0.421875 0.979066
vt 0.421875 0.979066
vt 0.578125 0.979066
vt 0.343750 0.843750
vt 0.343750 0.843750
vt 0.421875 0.708434
vt 0.421875 0.708434
vt 0.578125 0.708434
vt 0.578125 0.708434
vt 0.656250 0.843750
vt 0.656250 0.843750
vt 0.421875 0.979066
vt 0.578125 0.979066
vt 0.656250 0.843750
vt 0.578125 0.708434
vt 0.421875 0.708434
vt 0.343750 0.843750
vt 0.421875 0.979066
vt 0.578125 0.979066
vt 0.656250 0.843750
vt 0.578125 0.708434
vt 0.421875 0.708434
vt 0.343750 0.843750
vt 0.421875 0.979066
vt 0.578125 0.979066
vt 0.656250 0.843750
vt 0.578125 0.708434
vt 0.421875 0.708434
vt 0.343750 0.843750
vt 0.421875 0.979066
vt 0.578125 0.979066
vt 0.656250 0.843750
vt 0.578125 0.708434
vt 0.421875 0.708434
vt 0.343750 0.843750
vt 0.578125 0.979066
vt 0.421875 0.979066
vt 0.421875 0.979066
vt 0.578125 0.979066
vt 0.656250 0.843750
vt 0.656250 0.843750
vt 0.578125 0.708434
vt 0.578125 0.708434
vt 0.421875 0.708434
vt 0.421875 0.708434
vt 0.343750 0.843750
vt 0.343750 0.843750
vt 0.578125 0.979066
vt 0.421875 0.979066
vt 0.421875 0.979066
vt 0.578125 0.979066
vt 0.656250 0.843750
vt 0.656250 0.843750
vt 0.578125 0.708434
vt 0.578125 0.708434
vt 0.421875 0.708434
vt 0.421875 0.708434
vt 0.343750 0.843750
vt 0.343750 0.843750
vt 0.416667 0.511527
vt 0.458333 0.511527
vt 0.375000 0.511527
vt 0.583333 0.511527
vt 0.625000 0.511527
vt 0.541667 0.511527
vt 0.500000 0.511527
vt 0.458333 0.400956
vt 0.416667 0.400956
vt 0.375000 0.400956
vt 0.625000 0.400956
vt 0.583333 0.400956
vt 0.541667 0.400956
vt 0.500000 0.400956
vn 0.000000 0.000000 -1.000000
vn 0.000000 0.000000 -1.000000
vn 0.000000 0.000000 -1.000000
vn 0.000000 0.000000 -1.000000
vn -0.866025 0.000000 -0.500000
vn -0.866025 0.000000 -0.500000
vn -0.866025 0.000000 -0.500000
vn -0.866025 0.000000 -0.500000
vn -0.866026 0.000000 0.500000
vn -0.866026 0.000000 0.500000
vn -0.866026 0.000000 0.500000
vn -0.866026 0.000000 0.500000
vn 0.000000 0.000000 1.000000
vn 0.000000 0.000000 1.000000
vn 0.000000 0.000000 1.000000
vn 0.000000 0.000000 1.000000
vn 0.866025 0.000000 0.500000
vn 0.866025 0.000000 0.500000
vn 0.866025 0.000000 0.500000
vn 0.866025 0.000000 0.500000
vn 0.866026 0.000000 -0.500000
vn 0.866026 0.000000 -0.500000
vn 0.866026 0.000000 -0.500000
vn 0.866026 0.000000 -0.500000
vn 0.000000 -1.000000 0.000000
vn 0.000000 -1.000000 0.000000
vn 0.000000 -1.000000 0.000000
vn 0.000000 -1.000000 0.000000
vn 0.000000 -1.000000 -0.000000
vn 0.000000 -1.000000 -0.000000
vn 0.000000 -1.000000 0.000000
vn 0.000000 1.000000 0.000000
vn 0.000000 1.000000 0.000001
vn 0.000000 1.000000 0.000000
vn 0.000000 1.000000 0.000001
vn 0.000000 1.000000 0.000000
vn 0.000000 1.000000 0.000000
vn 0.000000 1.000000 0.000000
vn -0.751753 0.496478 -0.434025
vn -0.857139 0.142890 -0.494869
vn -0.857139 0.142890 -0.494870
vn -0.751753 0.496478 -0.434025
vn 0.000000 0.496478 -0.868049
vn 0.000000 0.142890 -0.989739
vn 0.000000 0.142890 -0.989739
vn 0.000000 0.496478 -0.868049
vn 0.751753 0.496478 -0.434024
vn 0.857139 0.142890 -0.494869
vn 0.857139 0.142890 -0.494869
vn 0.751753 0.496478 -0.434024
vn 0.751753 0.496478 0.434025
vn 0.857139 0.142890 0.494869
vn 0.857139 0.142890 0.494869
vn 0.751753 0.496478 0.434025
vn -0.000000 0.496478 0.868049
vn -0.000000 0.142890 0.989739
vn -0.000000 0.142890 0.989739
vn -0.000000 0.496478 0.868049
vn -0.751753 0.496478 0.434025
vn -0.857139 0.142890 0.494869
vn -0.857139 0.142890 0.494869
vn -0.751753 0.496478 0.434025
vn -0.866025 -0.000000 -0.500000
vn -0.866025 -0.000000 -0.500000
vn 0.000000 -0.000000 -1.000000
vn 0.000000 -0.000000 -1.000000
vn 0.866026 0.000000 -0.500000
vn 0.866026 0.000000 -0.500000
vn 0.866025 0.000000 0.500000
vn 0.866025 0.000000 0.500000
vn -0.000000 0.000000 1.000000
vn -0.000000 0.000000 1.000000
vn -0.866026 0.000000 0.500000
vn -0.866026 0.000000 0.500000
vn -0.861304 -0.104280 -0.497274
vn -0.861304 -0.104280 -0.497274
vn -0.840807 -0.239566 -0.485440
vn -0.840807 -0.239566 -0.485440
vn 0.000000 -0.104280 -0.994548
vn 0.000000 -0.104280 -0.994548
vn 0.000000 -0.239566 -0.970880
vn 0.000000 -0.239566 -0.970880
vn 0.861304 -0.104280 -0.497274
vn 0.861304 -0.104280 -0.497274
vn 0.840807 -0.239566 -0.485440
vn 0.840807 -0.239566 -0.485440
vn 0.861304 -0.104280 0.497274
vn 0.861304 -0.104280 0.497274
vn 0.840807 -0.239566 0.485440
vn 0.840807 -0.239566 0.485440
vn -0.000000 -0.104280 0.994548
vn -0.000000 -0.104280 0.994548
vn -0.000000 -0.239566 0.970880
vn -0.000000 -0.239566 0.970880
vn -0.861304 -0.104280 0.497274
vn -0.861304 -0.104280 0.497274
vn -0.840807 -0.239566 0.485440
vn -0.840807 -0.239566 0.485440
vn -0.861618 0.100764 -0.497455
vn -0.861618 0.100764 -0.497455
vn 0.000000 0.100764 -0.994910
vn 0.000000 0.100764 -0.994910
vn 0.861618 0.100764 -0.497455
vn 0.861618 0.100764 -0.497455
vn 0.861618 0.100764 0.497455
vn 0.861618 0.100764 0.497455
vn -0.000000 0.100764 0.994910
vn -0.000000 0.100764 0.994910
vn -0.861618 0.100764 0.497455
vn -0.861618 0.100764 0.497455
vn -0.844105 0.223565 -0.487345
vn -0.844105 0.223565 -0.487345
vn 0.000000 0.223565 -0.974689
vn 0.000000 0.223565 -0.974689
vn 0.844106 0.223565 -0.487344
vn 0.844106 0.223565 -0.487344
vn 0.844105 0.223565 0.487344
vn 0.844105 0.223565 0.487344
vn -0.000000 0.223565 0.974689
vn -0.000000 0.223565 0.974689
vn -0.844106 0.223565 0.487344
vn -0.844106 0.223565 0.487344
vn -0.000000 -0.000000 -1.000000
vn -0.000000 -0.000000 -1.000000
vn -0.000000 -0.000000 -1.000000
vn -0.000000 -0.000000 -1.000000
vn -0.866025 -0.000000 -0.500000
vn -0.866025 -0.000000 -0.500000
vn -0.866025 -0.000000 -0.500000
vn -0.866025 -0.000000 -0.500000
vn -0.866026 0.000000 0.500000
vn -0.866026 0.000000 0.500000
vn -0.866026 0.000000 0.500000
vn -0.866026 0.000000 0.500000
vn 0.000000 0.000000 1.000000
vn 0.000000 0.000000 1.000000
vn 0.000000 0.000000 1.000000
vn 0.000000 0.000000 1.000000
vn 0.866026 0.000000 0.500000
vn 0.866026 0.000000 0.500000
vn 0.866026 0.000000 0.500000
vn 0.866026 0.000000 0.500000
vn 0.866026 -0.000000 -0.499999
vn 0.866026 -0.000000 -0.499999
vn 0.866026 -0.000000 -0.499999
vn 0.866026 -0.000000 -0.499999
vn -0.866026 -0.000000 -0.499999
vn -0.866026 -0.000000 -0.499999
vn -0.866026 -0.000000 -0.499999
vn -0.866026 -0.000000 -0.499999
vn 0.000000 -0.000000 -1.000000
vn 0.000000 -0.000000 -1.000000
vn 0.000000 -0.000000 -1.000000
vn 0.000000 -0.000000 -1.000000
vn 0.866026 0.000000 -0.499999
vn 0.866026 0.000000 -0.499999
vn 0.866026 0.000000 -0.499999
vn 0.866026 0.000000 -0.499999
vn 0.866025 0.000000 0.500001
vn 0.866025 0.000000 0.500001
vn 0.866025 0.000000 0.500001
vn 0.866025 0.000000 0.500001
vn 0.000000 0.000000 1.000000
vn 0.000000 0.000000 1.000000
vn 0.000000 0.000000 1.000000
vn 0.000000 0.000000 1.000000
vn -0.866026 -0.000000 0.499999
vn -0.866026 -0.000000 0.500000
vn -0.866026 -0.000000 0.500000
vn -0.866026 -0.000000 0.499999
vn 0.000000 1.000000 -0.000001
vn 0.000000 1.000000 0.000000
vn 0.000000 1.000000 0.000000
vn 0.000000 1.000000 -0.000001
vn 0.000000 -1.000000 -0.000001
vn 0.000000 -1.000000 -0.000001
vn 0.000000 -1.000000 -0.000001
vn 0.000000 -1.000000 -0.000001
vn 0.000000 1.000000 -0.000001
vn 0.000000 1.000000 -0.000001
vn 0.000000 -1.000000 0.000000
vn 0.000000 -1.000000 0.000000
vn 0.000000 1.000000 -0.000001
vn 0.000000 1.000000 -0.000001
vn 0.000000 -1.000000 -0.000000
vn 0.000000 -1.000000 0.000000
vn 0.000000 1.000000 -0.000000
vn 0.000000 1.000000 -0.000000
vn 0.000000 -1.000000 -0.000000
vn 0.000000 -1.000000 -0.000000
vn 0.000000 1.000000 -0.000000
vn 0.000000 1.000000 -0.000000
vn 0.000000 -1.000000 0.000000
vn 0.000000 -1.000000 0.000000
vn 0.000000 -0.000000 -1.000000
vn 0.000000 -0.000000 -1.000000
vn 0.000000 -0.000000 -1.000000
vn 0.000000 -0.000000 -1.000000
vn 0.866026 0.000000 -0.499999
vn 0.866026 0.000000 -0.499999
vn 0.866026 0.000000 -0.499999
vn 0.866026 0.000000 -0.499999
vn 0.866026 0.000000 0.500000
vn 0.866026 0.000000 0.500000
vn 0.866026 0.000000 0.500000
vn 0.866026 0.000000 0.500000
vn 0.000000 0.000000 1.000000
vn 0.000000 0.000000 1.000000
vn 0.000000 0.000000 1.000000
vn 0.000000 0.000000 1.000000
vn -0.866024 0.000000 0.500002
vn -0.866024 0.000000 0.500002
vn -0.866024 0.000000 0.500002
vn -0.866024 0.000000 0.500002
vn -0.866025 -0.000000 -0.500001
vn -0.866025 -0.000000 -0.500001
vn -0.866025 -0.000000 -0.500001
vn -0.866025 -0.000000 -0.500001
vn 0.000000 -0.000000 -1.000000
vn 0.000000 -0.000000 -1.000000
vn 0.000000 -0.000000 -1.000000
vn 0.000000 -0.000000 -1.000000
vn 0.866026 0.000000 -0.500000
vn 0.866026 0.000000 -0.500000
vn 0.866026 0.000000 -0.499999
vn 0.866026 0.000000 -0.500000
vn 0.866026 0.000000 0.500000
vn 0.866025 0.000000 0.500000
vn 0.866025 0.000000 0.500000
vn 0.866026 0.000000 0.500000
vn 0.000000 0.000000 1.000000
vn 0.000000 0.000000 1.000000
vn 0.000000 0.000000 1.000000
vn 0.000000 0.000000 1.000000
vn -0.866026 0.000000 0.500000
vn -0.866026 0.000000 0.500000
vn -0.866026 0.000000 0.500000
vn -0.866026 0.000000 0.500000
vn -0.866026 -0.000000 -0.500000
vn -0.866026 -0.000000 -0.499999
vn -0.866026 -0.000000 -0.499999
vn -0.866026 -0.000000 -0.500000
vn 0.000000 0.000000 -1.000000
vn 0.000000 0.000000 -1.000000
vn 0.000000 0.000000 -1.000000
vn 0.000000 0.000000 -1.000000
vn 0.866026 0.000000 -0.499999
vn 0.866026 0.000000 -0.499999
vn 0.866026 0.000000 -0.499999
vn 0.866026 0.000000 -0.499999
vn 0.866026 0.000000 0.500000
vn 0.866026 0.000000 0.500000
vn 0.866026 0.000000 0.500000
vn 0.866026 0.000000 0.500000
vn 0.000000 0.000000 1.000000
vn 0.000000 0.000000 1.000000
vn 0.000000 0.000000 1.000000
vn 0.000000 0.000000 1.000000
vn -0.866026 0.000000 0.500000
vn -0.866026 0.000000 0.500000
vn -0.866026 0.000000 0.500000
vn -0.866026 0.000000 0.500000
vn -0.866026 0.000000 -0.499999
vn -0.866026 0.000000 -0.499999
vn -0.866026 0.000000 -0.499999
vn -0.866026 0.000000 -0.499999
vn -0.000000 -0.000000 -1.000000
vn -0.000000 -0.000000 -1.000000
vn -0.000000 -0.000000 -1.000000
vn -0.000000 -0.000000 -1.000000
vn 0.866026 0.000000 -0.499999
vn 0.866026 0.000000 -0.500000
vn 0.866026 0.000000 -0.500000
vn 0.866026 0.000000 -0.499999
vn 0.866026 -0.000000 0.500000
vn 0.866026 -0.000000 0.500000
vn 0.866026 -0.000000 0.500000
vn 0.866026 -0.000000 0.500000
vn 0.000000 0.000000 1.000000
vn 0.000000 0.000000 1.000000
vn 0.000000 0.000000 1.000000
vn 0.000000 0.000000 1.000000
vn -0.866026 0.000000 0.500000
vn -0.866026 0.000000 0.500000
vn -0.866026 0.000000 0.500000
vn -0.866026 0.000000 0.500000
vn -0.866025 -0.000000 -0.500001
vn -0.866025 -0.000000 -0.500001
vn -0.866025 -0.000000 -0.500001
vn -0.866025 -0.000000 -0.500001
vn 0.000000 1.000000 0.000002
vn 0.000000 1.000000 -0.000000
vn 0.000000 1.000000 0.000000
vn 0.000000 1.000000 0.000002
vn 0.000000 -1.000000 0.000006
vn 0.000000 -1.000000 0.000002
vn 0.000000 -1.000000 0.000002
vn 0.000000 -1.000000 0.000006
vn 0.000000 1.000000 0.000003
vn 0.000000 1.000000 0.000003
vn 0.000000 -1.000000 0.000004
vn 0.000000 -1.000000 0.000004
vn 0.000000 1.000000 0.000001
vn 0.000000 1.000000 0.000001
vn 0.000000 -1.000000 0.000006
vn 0.000000 -1.000000 0.000006
vn 0.000000 1.000000 -0.000001
vn 0.000000 1.000000 -0.000001
vn 0.000000 -1.000000 -0.000001
vn 0.000000 -1.000000 -0.000001
vn 0.000000 1.000000 -0.000001
vn 0.000000 1.000000 -0.000001
vn 0.000000 -1.000000 0.000001
vn 0.000000 -1.000000 0.000001
vn 0.000000 1.000000 -0.000005
vn 0.000000 1.000000 -0.000004
vn 0.000000 1.000000 -0.000004
vn 0.000000 1.000000 -0.000005
vn 0.000000 -1.000000 0.000003
vn 0.000000 -1.000000 0.000001
vn 0.000000 -1.000000 0.000001
vn 0.000000 -1.000000 0.000003
vn 0.000000 1.000000 -0.000002
vn 0.000000 1.000000 -0.000002
vn 0.000000 -1.000000 -0.000002
vn 0.000000 -1.000000 -0.000002
vn 0.000000 1.000000 0.000002
vn 0.000000 1.000000 0.000002
vn 0.000000 -1.000000 -0.000002
vn 0.000000 -1.000000 -0.000002
vn 0.000000 1.000000 -0.000000
vn 0.000000 1.000000 0.000000
vn 0.000000 -1.000000 0.000000
vn 0.000000 -1.000000 -0.000000
vn 0.000000 1.000000 -0.000004
vn 0.000000 1.000000 -0.000004
vn 0.000000 -1.000000 0.000002
vn 0.000000 -1.000000 0.000002
vn 0.000000 0.000000 0.000000
vn 0.000000 0.000000 0.000000
vn 0.000000 0.000000 0.000000
vn 0.000000 0.000000 0.000000
vn 0.000000 0.000000 0.000000
vn 0.000000 0.000000 0.000000
vn 0.000000 0.000000 0.000000
vn 0.000000 0.000000 0.000000
vn 0.000000 0.000000 0.000000
vn 0.000000 0.000000 0.000000
vn 0.000000 0.000000 0.000000
vn 0.000000 0.000000 0.000000
vn 0.000000 0.000000 0.000000
vn 0.000000 0.000000 0.000000
vn 0.000000 0.000000 0.000000
vn 0.000000 0.000000 0.000000
vn 0.000000 0.000000 0.000000
vn 0.000000 0.000000 0.000000
vn 0.000000 0.000000 0.000000
vn 0.000000 0.000000 0.000000
vn 0.000000 0.000000 0.000000
vn 0.000000 0.000000 0.000000
vn 0.000000 0.000000 0.000000
vn 0.000000 0.000000 0.000000
vn 0.000000 0.000000 0.000000
vn 0.000000 0.000000 0.000000
vn 0.000000 0.000000 0.000000
vn 0.000000 0.000000 0.000000
vn 0.000000 0.000000 0.000000
vn 0.000000 0.000000 0.000000
vn 0.000000 0.000000 0.000000
vn 0.000000 0.000000 0.000000
vn 0.000000 0.000000 0.000000
vn 0.000000 0.000000 0.000000
vn 0.000000 0.000000 0.000000
vn 0.000000 0.000000 0.000000
vn 0.000000 0.000000 0.000000
vn 0.000000 0.000000 0.000000
vn 0.000000 0.000000 0.000000
vn 0.000000 0.000000 0.000000
vn 0.000000 0.000000 0.000000
vn 0.000000 0.000000 0.000000
vn 0.000000 0.000000 0.000000
vn 0.000000 0.000000 0.000000
vn 0.000000 0.000000 0.000000
vn 0.000000 0.000000 0.000000
vn 0.000000 0.000000 0.000000
vn 0.000000 0.000000 0.000000
s off
usemtl initialShadingGroup
f 1/7/1 2/8/2 124/144/3 125/145/4
f 2/8/5 3/9/6 123/143/7 124/144/8
f 123/143/9 3/9/10 4/10/11 128/149/12
f 4/10/13 5/11/14 127/148/15 128/149/16
f 5/11/17 6/12/18 126/147/19 127/148/20
f 6/12/21 1/13/22 125/146/23 126/147/24
s 1
f 2/2/25 1/1/26 13/27/27
f 3/3/28 2/2/25 13/27/27
f 4/4/29 3/3/28 13/27/27
f 5/5/30 4/4/29 13/27/27
f 6/6/31 5/5/30 13/27/27
f 1/1/26 6/6/31 13/27/27
s 2
f 44/64/32 45/65/33 46/28/34
f 45/65/33 47/66/35 46/28/34
f 47/66/35 48/67/36 46/28/34
f 48/67/36 49/68/37 46/28/34
f 49/68/37 50/69/38 46/28/34
f 50/69/38 44/64/32 46/28/34
s 3
f 8/15/39 15/30/40 14/29/41 9/16/42
s 4
f 7/14/43 16/32/44 15/30/45 8/15/46
s 5
f 12/19/47 17/33/48 16/31/49 7/20/50
s 6
f 11/18/51 18/34/52 17/33/53 12/19/54
s 7
f 10/17/55 19/35/56 18/34/57 11/18/58
s 8
f 9/16/59 14/29/60 19/35/61 10/17/62
s 3
f 118/136/63 117/137/64 14/29/41 15/30/40
s 4
f 119/138/65 118/136/66 15/30/45 16/32/44
s 5
f 120/139/67 119/140/68 16/31/49 17/33/48
s 6
f 121/141/69 120/139/70 17/33/53 18/34/52
s 7
f 122/142/71 121/141/72 18/34/57 19/35/56
s 8
f 14/29/60 117/137/73 122/142/74 19/35/61
s 9
f 27/44/75 26/43/76 20/36/77 21/37/78
s 10
f 28/46/79 27/44/80 21/37/81 22/39/82
s 11
f 29/47/83 28/45/84 22/38/85 23/40/86
s 12
f 30/48/87 29/47/88 23/40/89 24/41/90
s 13
f 31/49/91 30/48/92 24/41/93 25/42/94
s 14
f 26/43/95 31/49/96 25/42/97 20/36/98
s 9
f 27/44/75 33/51/99 32/50/100 26/43/76
s 10
f 28/46/79 34/53/101 33/51/102 27/44/80
s 11
f 29/47/83 35/54/103 34/52/104 28/45/84
s 12
f 30/48/87 36/55/105 35/54/106 29/47/88
s 13
f 31/49/91 37/56/107 36/55/108 30/48/92
s 14
f 26/43/95 32/50/109 37/56/110 31/49/96
s 9
f 39/58/111 38/57/112 32/50/100 33/51/99
s 10
f 40/60/113 39/58/114 33/51/102 34/53/101
s 11
f 41/61/115 40/59/116 34/52/104 35/54/103
s 12
f 42/62/117 41/61/118 35/54/106 36/55/105
s 13
f 43/63/119 42/62/120 36/55/108 37/56/107
s 14
f 38/57/121 43/63/122 37/56/110 32/50/109
s off
f 57/76/123 58/77/124 59/78/125 60/79/126
f 58/77/127 61/80/128 62/81/129 59/78/130
f 61/80/131 63/82/132 64/83/133 62/81/134
f 63/82/135 65/84/136 66/85/137 64/83/138
f 65/84/139 67/86/140 68/87/141 66/85/142
f 67/86/143 57/76/144 60/79/145 68/87/146
f 52/71/147 51/70/148 92/111/149 87/106/150
f 53/72/151 52/71/152 87/106/153 88/107/154
f 54/73/155 53/72/156 88/107/157 89/108/158
f 55/74/159 54/73/160 89/108/161 90/109/162
f 56/75/163 55/74/164 90/109/165 91/110/166
f 51/70/167 56/75/168 91/110/169 92/111/170
s 15
f 7/25/171 8/24/172 58/77/173 57/76/174
s 16
f 52/71/175 53/72/176 60/79/177 59/78/178
s 15
f 8/24/172 9/23/179 61/80/180 58/77/173
s 16
f 51/70/181 52/71/175 59/78/178 62/81/182
s 15
f 9/23/179 10/22/183 63/82/184 61/80/180
s 16
f 56/75/185 51/70/181 62/81/182 64/83/186
s 15
f 10/22/183 11/21/187 65/84/188 63/82/184
s 16
f 55/74/189 56/75/185 64/83/186 66/85/190
s 15
f 11/21/187 12/26/191 67/86/192 65/84/188
s 16
f 54/73/193 55/74/189 66/85/190 68/87/194
s 15
f 12/26/191 7/25/171 57/76/174 67/86/192
s 16
f 53/72/176 54/73/193 68/87/194 60/79/177
s off
f 70/89/195 69/88/196 45/65/197 44/64/198
f 71/90/199 70/89/200 44/64/201 50/69/202
f 72/91/203 71/90/204 50/69/205 49/68/206
f 73/92/207 72/91/208 49/68/209 48/67/210
f 74/93/211 73/92/212 48/67/213 47/66/214
f 69/88/215 74/93/216 47/66/217 45/65/218
f 94/112/219 93/113/220 95/114/221 96/115/222
f 97/116/223 94/112/224 96/115/225 98/117/226
f 99/118/227 97/116/228 98/117/229 100/119/230
f 101/120/231 99/118/232 100/119/233 102/121/234
f 103/122/235 101/120/236 102/121/237 104/123/238
f 93/113/239 103/122/240 104/123/241 95/114/242
f 82/101/243 81/100/244 75/94/245 76/95/246
f 83/102/247 82/101/248 76/95/249 77/96/250
f 84/103/251 83/102/252 77/96/253 78/97/254
f 85/104/255 84/103/256 78/97/257 79/98/258
f 86/105/259 85/104/260 79/98/261 80/99/262
f 81/100/263 86/105/264 80/99/265 75/94/266
f 106/124/267 105/125/268 107/126/269 108/127/270
f 109/128/271 106/124/272 108/127/273 110/129/274
f 111/130/275 109/128/276 110/129/277 112/131/278
f 113/132/279 111/130/280 112/131/281 114/133/282
f 115/134/283 113/132/284 114/133/285 116/135/286
f 105/125/287 115/134/288 116/135/289 107/126/290
s 17
f 76/95/291 75/94/292 93/113/293 94/112/294
s 18
f 69/88/295 70/89/296 96/115/297 95/114/298
s 17
f 77/96/299 76/95/291 94/112/294 97/116/300
s 18
f 70/89/296 71/90/301 98/117/302 96/115/297
s 17
f 78/97/303 77/96/299 97/116/300 99/118/304
s 18
f 71/90/301 72/91/305 100/119/306 98/117/302
s 17
f 79/98/307 78/97/303 99/118/304 101/120/308
s 18
f 72/91/305 73/92/309 102/121/310 100/119/306
s 17
f 80/99/311 79/98/307 101/120/308 103/122/312
s 18
f 73/92/309 74/93/313 104/123/314 102/121/310
s 17
f 75/94/292 80/99/311 103/122/312 93/113/293
s 18
f 74/93/313 69/88/295 95/114/298 104/123/314
s 19
f 88/107/315 87/106/316 105/125/317 106/124/318
s 20
f 81/100/319 82/101/320 108/127/321 107/126/322
s 19
f 89/108/323 88/107/315 106/124/318 109/128/324
s 20
f 82/101/320 83/102/325 110/129/326 108/127/321
s 19
f 90/109/327 89/108/323 109/128/324 111/130/328
s 20
f 83/102/325 84/103/329 112/131/330 110/129/326
s 19
f 91/110/331 90/109/327 111/130/328 113/132/332
s 20
f 84/103/329 85/104/333 114/133/334 112/131/330
s 19
f 92/111/335 91/110/331 113/132/332 115/134/336
s 20
f 85/104/333 86/105/337 116/135/338 114/133/334
s 19
f 87/106/316 92/111/335 115/134/336 105/125/317
s 20
f 86/105/337 81/100/319 107/126/322 116/135/338
s off
f 21/37/339 20/36/340 117/137/341 118/136/342
f 22/39/343 21/37/344 118/136/345 119/138/346
f 23/40/347 22/38/348 119/140/349 120/139/350
f 24/41/351 23/40/352 120/139/353 121/141/354
f 25/42/355 24/41/356 121/141/357 122/142/358
f 20/36/359 25/42/360 122/142/361 117/137/362
f 38/57/363 39/58/364 124/144/365 123/143/366
f 39/58/367 40/60/368 125/145/369 124/144/370
f 40/59/371 41/61/372 126/147/373 125/146/374
f 41/61/375 42/62/376 127/148/377 126/147/378
f 42/62/379 43/63/380 128/149/381 127/148/382
f 43/63/383 38/57/384 123/143/385 128/149/386
