# This file uses centimeters as units for non-parametric coordinates.

mtllib lamp.mtl
v 0.050000 0.192252 -0.086603
v -0.050000 0.192252 -0.086603
v -0.100000 0.192252 -0.000000
v -0.050000 0.192252 0.086603
v 0.050000 0.192252 0.086603
v 0.100000 0.192252 0.000000
v 0.086603 0.265457 -0.150000
v -0.086603 0.265457 -0.150000
v -0.173205 0.265457 -0.000000
v -0.086603 0.265457 0.150000
v 0.086603 0.265457 0.150000
v 0.173205 0.265457 0.000000
v 0.100000 0.365457 -0.173205
v -0.100000 0.365457 -0.173205
v -0.200000 0.365457 -0.000000
v -0.100000 0.365457 0.173205
v 0.100000 0.365457 0.173205
v 0.200000 0.365457 0.000000
v 0.086603 0.465457 -0.150000
v -0.086603 0.465457 -0.150000
v -0.173205 0.465457 -0.000000
v -0.086603 0.465457 0.150000
v 0.086603 0.465457 0.150000
v 0.173205 0.465457 0.000000
v 0.050000 0.538662 -0.086603
v -0.050000 0.538662 -0.086603
v -0.100000 0.538662 -0.000000
v -0.050000 0.538662 0.086603
v 0.050000 0.538662 0.086603
v 0.100000 0.538662 0.000000
v 0.000000 0.165457 0.000000
v 0.000000 0.565457 0.000000
v 0.500000 0.577068 0.866025
v -0.500000 0.577068 0.866026
v -1.000000 0.577068 0.000000
v -0.500000 0.577068 -0.866025
v 0.500000 0.577068 -0.866025
v 1.000000 0.577068 -0.000000
v 0.500000 -0.577068 0.866025
v -0.500000 -0.577068 0.866026
v -1.000000 -0.577068 0.000000
v -0.500000 -0.577068 -0.866025
v 0.500000 -0.577068 -0.866025
v 1.000000 -0.577068 0.000000
v 0.000000 0.577068 -0.000000
v 0.869696 -0.577068 0.000000
v 0.430048 -0.577068 -0.744866
v -0.424012 -0.577068 -0.734410
v -0.870529 -0.577068 0.000000
v -0.424027 -0.577068 0.734437
v 0.424748 -0.577068 0.735684
v 0.869696 0.479750 -0.000000
v 0.430048 0.479750 -0.744866
v 0.000000 0.479750 0.000000
v -0.424012 0.479750 -0.734410
v -0.870529 0.479750 0.000000
v -0.424027 0.479750 0.734437
v 0.424748 0.479750 0.735684
v -0.050793 0.524682 0.050793
v 0.050793 0.524682 0.050793
v -0.050793 1.524682 0.050793
v 0.050793 1.524682 0.050793
v -0.050793 1.524682 -0.050793
v 0.050793 1.524682 -0.050793
v -0.050793 0.524682 -0.050793
v 0.050793 0.524682 -0.050793
vt 0.000000 0.166667
vt 0.166667 0.166667
vt 0.333333 0.166667
vt 0.500000 0.166667
vt 0.666667 0.166667
vt 0.833333 0.166667
vt 1.000000 0.166667
vt 0.000000 0.333333
vt 0.166667 0.333333
vt 0.333333 0.333333
vt 0.500000 0.333333
vt 0.666667 0.333333
vt 0.833333 0.333333
vt 1.000000 0.333333
vt 0.000000 0.500000
vt 0.166667 0.500000
vt 0.333333 0.500000
vt 0.500000 0.500000
vt 0.666667 0.500000
vt 0.833333 0.500000
vt 1.000000 0.500000
vt 0.000000 0.666667
vt 0.166667 0.666667
vt 0.333333 0.666667
vt 0.500000 0.666667
vt 0.666667 0.666667
vt 0.833333 0.666667
vt 1.000000 0.666667
vt 0.000000 0.833333
vt 0.166667 0.833333
vt 0.333333 0.833333
vt 0.500000 0.833333
vt 0.666667 0.833333
vt 0.833333 0.833333
vt 1.000000 0.833333
vt 0.083333 0.000000
vt 0.250000 0.000000
vt 0.416667 0.000000
vt 0.583333 0.000000
vt 0.750000 0.000000
vt 0.916667 0.000000
vt 0.083333 1.000000
vt 0.250000 1.000000
vt 0.416667 1.000000
vt 0.583333 1.000000
vt 0.750000 1.000000
vt 0.916667 1.000000
vt 0.375000 0.312500
vt 0.416667 0.312500
vt 0.416667 0.688440
vt 0.375000 0.688440
vt 0.458333 0.312500
vt 0.458333 0.688440
vt 0.500000 0.312500
vt 0.500000 0.688440
vt 0.541667 0.312500
vt 0.541667 0.688440
vt 0.583333 0.312500
vt 0.583333 0.688440
vt 0.625000 0.312500
vt 0.625000 0.688440
vt 0.421875 0.020934
vt 0.578125 0.020934
vt 0.500000 0.150000
vt 0.343750 0.156250
vt 0.421875 0.291566
vt 0.578125 0.291566
vt 0.656250 0.156250
vt 0.578125 0.979066
vt 0.421875 0.979066
vt 0.433746 0.957556
vt 0.566367 0.957760
vt 0.343750 0.843750
vt 0.363980 0.842941
vt 0.421875 0.708434
vt 0.433748 0.728049
vt 0.578125 0.708434
vt 0.567195 0.726490
vt 0.656250 0.843750
vt 0.635890 0.842936
vt 0.567195 0.726490
vt 0.635890 0.842936
vt 0.500000 0.837500
vt 0.433748 0.728049
vt 0.363980 0.842941
vt 0.433746 0.957556
vt 0.566367 0.957760
vt 0.375000 0.000000
vt 0.625000 0.000000
vt 0.625000 0.250000
vt 0.375000 0.250000
vt 0.625000 0.500000
vt 0.375000 0.500000
vt 0.625000 0.750000
vt 0.375000 0.750000
vt 0.625000 1.000000
vt 0.375000 1.000000
vt 0.875000 0.000000
vt 0.875000 0.250000
vt 0.125000 0.000000
vt 0.125000 0.250000
vn 0.000000 -0.654654 -0.755929
vn 0.000000 -0.654654 -0.755929
vn 0.000000 -0.654654 -0.755929
vn 0.000000 -0.654654 -0.755929
vn -0.654654 -0.654654 -0.377965
vn -0.654654 -0.654654 -0.377965
vn -0.654654 -0.654654 -0.377965
vn -0.654654 -0.654654 -0.377965
vn -0.654654 -0.654654 0.377965
vn -0.654654 -0.654654 0.377965
vn -0.654654 -0.654654 0.377965
vn -0.654654 -0.654654 0.377964
vn -0.000000 -0.654654 0.755929
vn -0.000000 -0.654654 0.755929
vn -0.000000 -0.654654 0.755929
vn -0.000000 -0.654654 0.755929
vn 0.654654 -0.654654 0.377965
vn 0.654654 -0.654654 0.377965
vn 0.654654 -0.654654 0.377964
vn 0.654654 -0.654654 0.377964
vn 0.654654 -0.654654 -0.377964
vn 0.654654 -0.654654 -0.377964
vn 0.654654 -0.654654 -0.377964
vn 0.654654 -0.654654 -0.377964
vn 0.000000 -0.226045 -0.974117
vn 0.000000 -0.226045 -0.974117
vn 0.000000 -0.226045 -0.974117
vn 0.000000 -0.226045 -0.974117
vn -0.843610 -0.226045 -0.487059
vn -0.843610 -0.226045 -0.487059
vn -0.843610 -0.226045 -0.487059
vn -0.843610 -0.226045 -0.487059
vn -0.843610 -0.226044 0.487058
vn -0.843610 -0.226044 0.487058
vn -0.843610 -0.226044 0.487058
vn -0.843610 -0.226044 0.487058
vn -0.000000 -0.226045 0.974117
vn -0.000000 -0.226045 0.974117
vn -0.000000 -0.226045 0.974117
vn -0.000000 -0.226045 0.974117
vn 0.843610 -0.226045 0.487059
vn 0.843610 -0.226045 0.487059
vn 0.843610 -0.226045 0.487058
vn 0.843610 -0.226045 0.487058
vn 0.843610 -0.226045 -0.487058
vn 0.843610 -0.226045 -0.487058
vn 0.843610 -0.226045 -0.487058
vn 0.843610 -0.226045 -0.487058
vn 0.000000 0.226045 -0.974117
vn 0.000000 0.226045 -0.974117
vn 0.000000 0.226045 -0.974117
vn 0.000000 0.226045 -0.974117
vn -0.843610 0.226045 -0.487059
vn -0.843610 0.226045 -0.487059
vn -0.843610 0.226045 -0.487059
vn -0.843610 0.226045 -0.487059
vn -0.843610 0.226044 0.487058
vn -0.843610 0.226044 0.487058
vn -0.843610 0.226044 0.487058
vn -0.843610 0.226044 0.487058
vn -0.000000 0.226045 0.974117
vn -0.000000 0.226045 0.974117
vn -0.000000 0.226045 0.974117
vn -0.000000 0.226045 0.974117
vn 0.843610 0.226045 0.487058
vn 0.843610 0.226045 0.487058
vn 0.843610 0.226045 0.487058
vn 0.843610 0.226045 0.487058
vn 0.843610 0.226045 -0.487058
vn 0.843610 0.226045 -0.487058
vn 0.843610 0.226045 -0.487058
vn 0.843610 0.226045 -0.487058
vn 0.000000 0.654653 -0.755929
vn 0.000000 0.654653 -0.755929
vn 0.000000 0.654653 -0.755929
vn 0.000000 0.654653 -0.755929
vn -0.654654 0.654654 -0.377965
vn -0.654654 0.654654 -0.377965
vn -0.654654 0.654654 -0.377965
vn -0.654654 0.654654 -0.377965
vn -0.654654 0.654654 0.377964
vn -0.654654 0.654654 0.377964
vn -0.654654 0.654654 0.377964
vn -0.654654 0.654654 0.377964
vn -0.000000 0.654654 0.755929
vn -0.000000 0.654654 0.755929
vn -0.000000 0.654654 0.755929
vn -0.000000 0.654654 0.755929
vn 0.654654 0.654654 0.377965
vn 0.654654 0.654654 0.377965
vn 0.654654 0.654654 0.377965
vn 0.654654 0.654654 0.377965
vn 0.654654 0.654654 -0.377964
vn 0.654654 0.654654 -0.377964
vn 0.654654 0.654654 -0.377964
vn 0.654654 0.654654 -0.377964
vn 0.000000 -0.955319 -0.295577
vn 0.000000 -0.955319 -0.295577
vn 0.000000 -0.955319 -0.295577
vn -0.255977 -0.955319 -0.147788
vn -0.255977 -0.955319 -0.147788
vn -0.255977 -0.955319 -0.147788
vn -0.255977 -0.955319 0.147788
vn -0.255977 -0.955319 0.147788
vn -0.255977 -0.955319 0.147788
vn -0.000000 -0.955319 0.295577
vn -0.000000 -0.955319 0.295577
vn -0.000000 -0.955319 0.295577
vn 0.255977 -0.955319 0.147788
vn 0.255977 -0.955319 0.147788
vn 0.255977 -0.955319 0.147788
vn 0.255977 -0.955319 -0.147788
vn 0.255977 -0.955319 -0.147788
vn 0.255977 -0.955319 -0.147788
vn 0.000000 0.955319 -0.295576
vn 0.000000 0.955319 -0.295576
vn 0.000000 0.955319 -0.295576
vn -0.255977 0.955319 -0.147789
vn -0.255977 0.955319 -0.147789
vn -0.255977 0.955319 -0.147789
vn -0.255977 0.955319 0.147789
vn -0.255977 0.955319 0.147789
vn -0.255977 0.955319 0.147789
vn -0.000000 0.955319 0.295576
vn -0.000000 0.955319 0.295576
vn -0.000000 0.955319 0.295576
vn 0.255977 0.955319 0.147788
vn 0.255977 0.955319 0.147788
vn 0.255977 0.955319 0.147788
vn 0.255977 0.955319 -0.147789
vn 0.255977 0.955319 -0.147789
vn 0.255977 0.955319 -0.147789
vn 0.000000 0.000000 1.000000
vn 0.000000 0.000000 1.000000
vn 0.000000 0.000000 1.000000
vn 0.000000 0.000000 1.000000
vn -0.866025 0.000000 0.500000
vn -0.866025 0.000000 0.500000
vn -0.866025 0.000000 0.500000
vn -0.866025 0.000000 0.500000
vn -0.866025 0.000000 -0.500000
vn -0.866025 0.000000 -0.500000
vn -0.866025 0.000000 -0.500000
vn -0.866025 0.000000 -0.500000
vn -0.000000 0.000000 -1.000000
vn -0.000000 0.000000 -1.000000
vn -0.000000 0.000000 -1.000000
vn -0.000000 0.000000 -1.000000
vn 0.866025 0.000000 -0.500000
vn 0.866025 0.000000 -0.500000
vn 0.866025 0.000000 -0.500000
vn 0.866025 0.000000 -0.500000
vn 0.866026 0.000000 0.500000
vn 0.866026 0.000000 0.500000
vn 0.866026 0.000000 0.500000
vn 0.866026 0.000000 0.500000
vn 0.000000 1.000000 0.000000
vn 0.000000 1.000000 0.000000
vn 0.000000 1.000000 0.000000
vn 0.000000 1.000000 0.000000
vn 0.000000 1.000000 0.000000
vn 0.000000 1.000000 0.000000
vn 0.000000 1.000000 0.000000
vn 0.000000 -1.000000 -0.000000
vn 0.000000 -1.000000 -0.000000
vn 0.000000 -1.000000 -0.000000
vn 0.000000 -1.000000 -0.000000
vn 0.000000 -1.000000 0.000000
vn 0.000000 -1.000000 0.000000
vn 0.000000 -1.000000 0.000000
vn 0.000000 -1.000000 0.000000
vn 0.000000 -1.000000 -0.000000
vn 0.000000 -1.000000 -0.000000
vn 0.000000 -1.000000 -0.000000
vn 0.000000 -1.000000 -0.000000
vn 0.000000 -1.000000 -0.000000
vn 0.000000 -1.000000 -0.000000
vn 0.000000 -1.000000 -0.000000
vn -0.000000 -1.000000 -0.000000
vn -0.000000 -1.000000 -0.000000
vn -0.000000 -1.000000 0.000000
vn 0.000000 -1.000000 -0.000000
vn -0.861180 -0.000000 0.508300
vn -0.861180 -0.000000 0.508300
vn -0.861180 -0.000000 0.508300
vn -0.861180 -0.000000 0.508300
vn 0.012241 -0.000000 0.999925
vn 0.012241 -0.000000 0.999925
vn 0.012241 -0.000000 0.999925
vn 0.012241 -0.000000 0.999925
vn 0.854465 0.000000 0.519509
vn 0.854465 0.000000 0.519509
vn 0.854465 0.000000 0.519509
vn 0.854465 0.000000 0.519509
vn 0.854481 0.000000 -0.519482
vn 0.854481 0.000000 -0.519482
vn 0.854481 0.000000 -0.519482
vn 0.854481 0.000000 -0.519482
vn 0.001469 0.000000 -0.999999
vn 0.001469 0.000000 -0.999999
vn 0.001469 0.000000 -0.999999
vn 0.001469 0.000000 -0.999999
vn -0.855672 -0.000000 -0.517518
vn -0.855672 -0.000000 -0.517518
vn -0.855672 -0.000000 -0.517518
vn -0.855672 -0.000000 -0.517518
vn 0.000000 0.000000 1.000000
vn 0.000000 0.000000 1.000000
vn 0.000000 0.000000 1.000000
vn 0.000000 0.000000 1.000000
vn 0.000000 1.000000 0.000000
vn 0.000000 1.000000 0.000000
vn 0.000000 1.000000 0.000000
vn 0.000000 1.000000 0.000000
vn 0.000000 0.000000 -1.000000
vn 0.000000 0.000000 -1.000000
vn 0.000000 0.000000 -1.000000
vn 0.000000 0.000000 -1.000000
vn 0.000000 -1.000000 0.000000
vn 0.000000 -1.000000 0.000000
vn 0.000000 -1.000000 0.000000
vn 0.000000 -1.000000 0.000000
vn 1.000000 0.000000 0.000000
vn 1.000000 0.000000 0.000000
vn 1.000000 0.000000 0.000000
vn 1.000000 0.000000 0.000000
vn -1.000000 0.000000 0.000000
vn -1.000000 0.000000 0.000000
vn -1.000000 0.000000 0.000000
vn -1.000000 0.000000 0.000000
s off
usemtl initialShadingGroup
f 1/1/1 2/2/2 8/9/3 7/8/4
f 2/2/5 3/3/6 9/10/7 8/9/8
f 3/3/9 4/4/10 10/11/11 9/10/12
f 4/4/13 5/5/14 11/12/15 10/11/16
f 5/5/17 6/6/18 12/13/19 11/12/20
f 6/6/21 1/7/22 7/14/23 12/13/24
f 7/8/25 8/9/26 14/16/27 13/15/28
f 8/9/29 9/10/30 15/17/31 14/16/32
f 9/10/33 10/11/34 16/18/35 15/17/36
f 10/11/37 11/12/38 17/19/39 16/18/40
f 11/12/41 12/13/42 18/20/43 17/19/44
f 12/13/45 7/14/46 13/21/47 18/20/48
f 13/15/49 14/16/50 20/23/51 19/22/52
f 14/16/53 15/17/54 21/24/55 20/23/56
f 15/17/57 16/18/58 22/25/59 21/24/60
f 16/18/61 17/19/62 23/26/63 22/25/64
f 17/19/65 18/20/66 24/27/67 23/26/68
f 18/20/69 13/21/70 19/28/71 24/27/72
f 19/22/73 20/23/74 26/30/75 25/29/76
f 20/23/77 21/24/78 27/31/79 26/30/80
f 21/24/81 22/25/82 28/32/83 27/31/84
f 22/25/85 23/26/86 29/33/87 28/32/88
f 23/26/89 24/27/90 30/34/91 29/33/92
f 24/27/93 19/28/94 25/35/95 30/34/96
f 2/2/97 1/1/98 31/36/99
f 3/3/100 2/2/101 31/37/102
f 4/4/103 3/3/104 31/38/105
f 5/5/106 4/4/107 31/39/108
f 6/6/109 5/5/110 31/40/111
f 1/7/112 6/6/113 31/41/114
f 25/29/115 26/30/116 32/42/117
f 26/30/118 27/31/119 32/43/120
f 27/31/121 28/32/122 32/44/123
f 28/32/124 29/33/125 32/45/126
f 29/33/127 30/34/128 32/46/129
f 30/34/130 25/35/131 32/47/132
f 33/48/133 34/49/134 40/50/135 39/51/136
f 34/49/137 35/52/138 41/53/139 40/50/140
f 35/52/141 36/54/142 42/55/143 41/53/144
f 36/54/145 37/56/146 43/57/147 42/55/148
f 37/56/149 38/58/150 44/59/151 43/57/152
f 38/58/153 33/60/154 39/61/155 44/59/156
s 1
f 34/62/157 33/63/158 45/64/159
f 35/65/160 34/62/157 45/64/159
f 36/66/161 35/65/160 45/64/159
f 37/67/162 36/66/161 45/64/159
f 38/68/163 37/67/162 45/64/159
f 33/63/158 38/68/163 45/64/159
s 2
f 39/69/164 40/70/165 50/71/166 51/72/167
f 40/70/165 41/73/168 49/74/169 50/71/166
f 41/73/168 42/75/170 48/76/171 49/74/169
f 42/75/170 43/77/172 47/78/173 48/76/171
f 43/77/172 44/79/174 46/80/175 47/78/173
f 44/79/174 39/69/164 51/72/167 46/80/175
s 3
f 53/81/176 52/82/177 54/83/178
f 55/84/179 53/81/176 54/83/178
f 56/85/180 55/84/179 54/83/178
f 57/86/181 56/85/180 54/83/178
f 58/87/182 57/86/181 54/83/178
f 52/82/177 58/87/182 54/83/178
s off
f 47/78/183 46/80/184 52/82/185 53/81/186
f 48/76/187 47/78/188 53/81/189 55/84/190
f 49/74/191 48/76/192 55/84/193 56/85/194
f 50/71/195 49/74/196 56/85/197 57/86/198
f 51/72/199 50/71/200 57/86/201 58/87/202
f 46/80/203 51/72/204 58/87/205 52/82/206
f 59/88/207 60/89/208 62/90/209 61/91/210
f 61/91/211 62/90/212 64/92/213 63/93/214
f 63/93/215 64/92/216 66/94/217 65/95/218
f 65/95/219 66/94/220 60/96/221 59/97/222
f 60/89/223 66/98/224 64/99/225 62/90/226
f 65/100/227 59/88/228 61/91/229 63/101/230
