# This file uses centimeters as units for non-parametric coordinates.

mtllib TV.mtl
v -0.238975 -0.832215 1.303167
v -0.056283 -1.048090 1.641206
v -0.238975 0.832215 1.303167
v -0.056283 1.048090 1.641206
v -0.238975 0.832215 -1.303167
v -0.056283 1.048090 -1.641206
v -0.238975 -0.832215 -1.303167
v -0.056283 -1.048090 -1.641206
v -0.158656 -2.268946 1.375298
v 0.158656 -2.268946 1.375298
v -0.158656 -1.951634 1.375298
v 0.158656 -1.951634 1.375298
v -0.158656 -1.951634 -1.375298
v 0.158656 -1.951634 -1.375298
v -0.158656 -2.268946 -1.375298
v 0.158656 -2.268946 -1.375298
v -0.071075 -2.218868 0.071075
v 0.071075 -2.218868 0.071075
v -0.071075 -1.461608 0.071075
v 0.071075 -1.461608 0.071075
v -0.071075 -1.461608 -0.071075
v 0.071075 -1.461608 -0.071075
v -0.071075 -2.218868 -0.071075
v 0.071075 -2.218868 -0.071075
v -0.100000 -1.500000 2.500000
v 0.100000 -1.500000 2.500000
v -0.100000 1.500000 2.500000
v 0.100000 1.500000 2.500000
v -0.100000 1.500000 -2.500000
v 0.100000 1.500000 -2.500000
v -0.100000 -1.500000 -2.500000
v 0.100000 -1.500000 -2.500000
v 0.100000 1.500000 2.360348
v -0.100000 1.500000 2.360348
v -0.100000 -1.500000 2.360348
v 0.100000 -1.500000 2.360348
v 0.100000 1.500000 -2.364456
v -0.100000 1.500000 -2.364456
v -0.100000 -1.500000 -2.364456
v 0.100000 -1.500000 -2.364456
v 0.100000 1.348186 -2.500000
v -0.100000 1.348186 -2.500000
v -0.100000 1.348186 -2.364456
v -0.100000 1.348186 2.360348
v -0.100000 1.348186 2.500000
v 0.100000 1.348186 2.500000
v 0.100000 1.348186 2.360348
v 0.100000 1.348186 -2.364456
v 0.100000 -1.376898 -2.500000
v -0.100000 -1.376898 -2.500000
v -0.100000 -1.376898 -2.364456
v -0.100000 -1.376898 2.360348
v -0.100000 -1.376898 2.500000
v 0.100000 -1.376898 2.500000
v 0.100000 -1.376898 2.360348
v 0.100000 -1.376898 -2.364456
v 0.030250 1.348186 2.360348
v 0.030250 1.348186 -2.364456
v 0.030250 -1.376898 2.360348
v 0.030250 -1.376898 -2.364456
vt 0.375000 0.000000
vt 0.625000 0.000000
vt 0.375000 0.250000
vt 0.625000 0.250000
vt 0.375000 0.500000
vt 0.625000 0.500000
vt 0.375000 0.750000
vt 0.625000 0.750000
vt 0.375000 1.000000
vt 0.625000 1.000000
vt 0.875000 0.000000
vt 0.875000 0.250000
vt 0.125000 0.000000
vt 0.125000 0.250000
vt 0.375000 0.000000
vt 0.625000 0.000000
vt 0.625000 0.250000
vt 0.375000 0.250000
vt 0.625000 0.500000
vt 0.375000 0.500000
vt 0.625000 0.750000
vt 0.375000 0.750000
vt 0.625000 1.000000
vt 0.375000 1.000000
vt 0.875000 0.000000
vt 0.875000 0.250000
vt 0.125000 0.000000
vt 0.125000 0.250000
vt 0.375000 0.000000
vt 0.625000 0.000000
vt 0.625000 0.250000
vt 0.375000 0.250000
vt 0.625000 0.500000
vt 0.375000 0.500000
vt 0.625000 0.750000
vt 0.375000 0.750000
vt 0.625000 1.000000
vt 0.375000 1.000000
vt 0.875000 0.000000
vt 0.875000 0.250000
vt 0.125000 0.000000
vt 0.125000 0.250000
vt 0.375000 0.237349
vt 0.625000 0.237349
vt 0.625000 0.250000
vt 0.375000 0.250000
vt 0.625000 0.256983
vt 0.375000 0.256983
vt 0.375000 0.500000
vt 0.625000 0.500000
vt 0.625000 0.512651
vt 0.375000 0.512651
vt 0.375000 0.993017
vt 0.625000 0.993017
vt 0.625000 1.000000
vt 0.375000 1.000000
vt 0.631983 0.237349
vt 0.631983 0.250000
vt 0.368017 0.237349
vt 0.368017 0.250000
vt 0.625000 0.493223
vt 0.375000 0.493223
vt 0.131777 0.237349
vt 0.131777 0.250000
vt 0.375000 0.756777
vt 0.625000 0.756777
vt 0.868223 0.237349
vt 0.868223 0.250000
vt 0.125000 0.237349
vt 0.125000 0.250000
vt 0.375000 0.750000
vt 0.625000 0.750000
vt 0.875000 0.237349
vt 0.875000 0.250000
vt 0.625000 0.739742
vt 0.375000 0.739742
vt 0.125000 0.010258
vt 0.131777 0.010258
vt 0.368017 0.010258
vt 0.375000 0.010258
vt 0.625000 0.010258
vt 0.631983 0.010258
vt 0.868223 0.237349
vt 0.631983 0.237349
vt 0.631983 0.010258
vt 0.868223 0.010258
vt 0.868223 0.010258
vt 0.875000 0.010258
vt 0.125000 0.000000
vt 0.131777 0.000000
vt 0.368017 0.000000
vt 0.375000 0.000000
vt 0.625000 0.000000
vt 0.631983 0.000000
vt 0.868223 0.000000
vt 0.875000 0.000000
vn -0.879741 0.000000 0.475453
vn -0.879741 0.000000 0.475453
vn -0.879741 0.000000 0.475453
vn -0.879741 0.000000 0.475453
vn -0.763336 0.646001 0.000000
vn -0.763336 0.646001 0.000000
vn -0.763336 0.646001 0.000000
vn -0.763336 0.646001 0.000000
vn -0.879741 0.000000 -0.475453
vn -0.879741 0.000000 -0.475453
vn -0.879741 0.000000 -0.475453
vn -0.879741 0.000000 -0.475453
vn -0.763336 -0.646001 0.000000
vn -0.763336 -0.646001 0.000000
vn -0.763336 -0.646001 0.000000
vn -0.763336 -0.646001 0.000000
vn 1.000000 0.000000 0.000000
vn 1.000000 0.000000 0.000000
vn 1.000000 0.000000 0.000000
vn 1.000000 0.000000 0.000000
vn -1.000000 0.000000 0.000000
vn -1.000000 0.000000 0.000000
vn -1.000000 0.000000 0.000000
vn -1.000000 0.000000 0.000000
vn 0.000000 0.000000 1.000000
vn 0.000000 0.000000 1.000000
vn 0.000000 0.000000 1.000000
vn 0.000000 0.000000 1.000000
vn 0.000000 1.000000 0.000000
vn 0.000000 1.000000 0.000000
vn 0.000000 1.000000 0.000000
vn 0.000000 1.000000 0.000000
vn 0.000000 0.000000 -1.000000
vn 0.000000 0.000000 -1.000000
vn 0.000000 0.000000 -1.000000
vn 0.000000 0.000000 -1.000000
vn 0.000000 -1.000000 0.000000
vn 0.000000 -1.000000 0.000000
vn 0.000000 -1.000000 0.000000
vn 0.000000 -1.000000 0.000000
vn 1.000000 0.000000 0.000000
vn 1.000000 0.000000 0.000000
vn 1.000000 0.000000 0.000000
vn 1.000000 0.000000 0.000000
vn -1.000000 0.000000 0.000000
vn -1.000000 0.000000 0.000000
vn -1.000000 0.000000 0.000000
vn -1.000000 0.000000 0.000000
vn 0.000000 0.000000 1.000000
vn 0.000000 0.000000 1.000000
vn 0.000000 0.000000 1.000000
vn 0.000000 0.000000 1.000000
vn 0.000000 1.000000 0.000000
vn 0.000000 1.000000 0.000000
vn 0.000000 1.000000 0.000000
vn 0.000000 1.000000 0.000000
vn 0.000000 0.000000 -1.000000
vn 0.000000 0.000000 -1.000000
vn 0.000000 0.000000 -1.000000
vn 0.000000 0.000000 -1.000000
vn 0.000000 -1.000000 0.000000
vn 0.000000 -1.000000 0.000000
vn 0.000000 -1.000000 0.000000
vn 0.000000 -1.000000 0.000000
vn 1.000000 0.000000 0.000000
vn 1.000000 0.000000 0.000000
vn 1.000000 0.000000 0.000000
vn 1.000000 0.000000 0.000000
vn -1.000000 0.000000 0.000000
vn -1.000000 0.000000 0.000000
vn -1.000000 0.000000 0.000000
vn -1.000000 0.000000 0.000000
vn 0.000000 0.000000 1.000000
vn 0.000000 0.000000 1.000000
vn 0.000000 0.000000 1.000000
vn 0.000000 0.000000 1.000000
vn 0.000000 1.000000 -0.000001
vn 0.000000 1.000000 -0.000001
vn 0.000000 1.000000 0.000000
vn 0.000000 1.000000 0.000000
vn 0.000000 0.000000 -1.000000
vn 0.000000 0.000000 -1.000000
vn 0.000000 0.000000 -1.000000
vn 0.000000 0.000000 -1.000000
vn 0.000000 -1.000000 0.000000
vn 0.000000 -1.000000 0.000000
vn 0.000000 -1.000000 0.000000
vn 0.000000 -1.000000 0.000000
vn 1.000000 0.000000 -0.000000
vn 1.000000 0.000000 -0.000000
vn 1.000000 0.000000 -0.000000
vn 1.000000 0.000000 -0.000000
vn -1.000000 0.000000 -0.000000
vn -1.000000 0.000000 -0.000000
vn -1.000000 0.000000 -0.000000
vn -1.000000 0.000000 -0.000000
vn 0.000000 1.000000 0.000000
vn 0.000000 1.000000 0.000000
vn -1.000000 0.000000 0.000000
vn -1.000000 0.000000 0.000000
vn 0.000000 -1.000000 0.000000
vn 0.000000 -1.000000 0.000000
vn 1.000000 0.000000 0.000000
vn 1.000000 0.000000 0.000000
vn 0.000000 1.000000 0.000000
vn 0.000000 1.000000 0.000000
vn -1.000000 0.000000 0.000000
vn -1.000000 0.000000 0.000000
vn 0.000000 -1.000000 0.000000
vn 0.000000 -1.000000 0.000000
vn 1.000000 0.000000 0.000000
vn 1.000000 0.000000 0.000000
vn 0.000000 0.000000 -1.000000
vn 0.000000 0.000000 -1.000000
vn -1.000000 0.000000 0.000000
vn -1.000000 0.000000 0.000000
vn -1.000000 0.000000 -0.000000
vn -1.000000 0.000000 -0.000000
vn 0.000000 0.000000 1.000000
vn 0.000000 0.000000 1.000000
vn 1.000000 0.000000 -0.000000
vn 1.000000 0.000000 -0.000000
vn 1.000000 0.000000 0.000000
vn 1.000000 0.000000 0.000000
vn 1.000000 0.000000 0.000000
vn 1.000000 0.000000 0.000000
vn 1.000000 0.000000 0.000000
vn 1.000000 0.000000 0.000000
vn 0.000000 0.000000 -1.000000
vn 0.000000 0.000000 -1.000000
vn -1.000000 0.000000 0.000000
vn -1.000000 0.000000 0.000000
vn -1.000000 0.000000 0.000000
vn -1.000000 0.000000 0.000000
vn 0.000000 0.000000 1.000000
vn 0.000000 0.000000 1.000000
vn 1.000000 0.000000 0.000000
vn 1.000000 0.000000 0.000000
vn 1.000000 0.000000 0.000000
vn 1.000000 0.000000 0.000000
vn 0.000000 -1.000000 -0.000000
vn 0.000000 -1.000000 -0.000000
vn 0.000000 -1.000000 -0.000000
vn 0.000000 -1.000000 -0.000000
vn 0.000000 0.000000 -1.000000
vn 0.000000 0.000000 -1.000000
vn 0.000000 0.000000 -1.000000
vn 0.000000 0.000000 -1.000000
vn 0.000000 1.000000 0.000000
vn 0.000000 1.000000 0.000000
vn 0.000000 1.000000 0.000000
vn 0.000000 1.000000 0.000000
vn 0.000000 0.000000 1.000000
vn 0.000000 0.000000 1.000000
vn 0.000000 0.000000 1.000000
vn 0.000000 0.000000 1.000000
s off
usemtl initialShadingGroup
f 1/1/1 2/2/2 4/4/3 3/3/4
f 3/3/5 4/4/6 6/6/7 5/5/8
f 5/5/9 6/6/10 8/8/11 7/7/12
f 7/7/13 8/8/14 2/10/15 1/9/16
f 2/2/17 8/11/18 6/12/19 4/4/20
f 7/13/21 1/1/22 3/3/23 5/14/24
f 9/15/25 10/16/26 12/17/27 11/18/28
f 11/18/29 12/17/30 14/19/31 13/20/32
f 13/20/33 14/19/34 16/21/35 15/22/36
f 15/22/37 16/21/38 10/23/39 9/24/40
f 10/16/41 16/25/42 14/26/43 12/17/44
f 15/27/45 9/15/46 11/18/47 13/28/48
f 17/29/49 18/30/50 20/31/51 19/32/52
f 19/32/53 20/31/54 22/33/55 21/34/56
f 21/34/57 22/33/58 24/35/59 23/36/60
f 23/36/61 24/35/62 18/37/63 17/38/64
f 18/30/65 24/39/66 22/40/67 20/31/68
f 23/41/69 17/29/70 19/32/71 21/42/72
s 1
f 45/43/73 46/44/74 28/45/75 27/46/76
s 2
f 27/46/77 28/45/78 33/47/79 34/48/80
s 3
f 29/49/81 30/50/82 41/51/83 42/52/84
s 4
f 35/53/85 36/54/86 26/55/87 25/56/88
s 5
f 46/44/89 47/57/90 33/58/91 28/45/92
s 6
f 44/59/93 45/43/94 27/46/95 34/60/96
s 2
f 34/48/80 33/47/79 37/61/97 38/62/98
s 6
f 43/63/99 44/59/93 34/60/96 38/64/100
s 4
f 39/65/101 40/66/102 36/54/86 35/53/85
s 5
f 33/58/91 47/57/90 48/67/103 37/68/104
s 2
f 38/62/98 37/61/97 30/50/105 29/49/106
s 6
f 42/69/107 43/63/99 38/64/100 29/70/108
s 4
f 31/71/109 32/72/110 40/66/102 39/65/101
s 5
f 37/68/104 48/67/103 41/73/111 30/74/112
s 3
f 42/52/84 41/51/83 49/75/113 50/76/114
s 6
f 50/77/115 51/78/116 43/63/99 42/69/107
f 51/78/116 52/79/117 44/59/93 43/63/99
f 52/79/117 53/80/118 45/43/94 44/59/93
s 1
f 53/80/119 54/81/120 46/44/74 45/43/73
s 5
f 54/81/121 55/82/122 47/57/90 46/44/89
s off
f 58/83/123 57/84/124 59/85/125 60/86/126
s 5
f 41/73/111 48/67/103 56/87/127 49/88/128
s 3
f 50/76/114 49/75/113 32/72/129 31/71/130
s 6
f 31/89/131 39/90/132 51/78/116 50/77/115
f 39/90/132 35/91/133 52/79/117 51/78/116
f 35/91/133 25/92/134 53/80/118 52/79/117
s 1
f 25/92/135 26/93/136 54/81/120 53/80/119
s 5
f 26/93/137 36/94/138 55/82/122 54/81/121
f 56/87/127 55/82/122 36/94/138 40/95/139
f 49/88/128 56/87/127 40/95/139 32/96/140
s off
f 48/67/141 47/57/142 57/84/143 58/83/144
f 47/57/145 55/82/146 59/85/147 57/84/148
f 55/82/149 56/87/150 60/86/151 59/85/152
f 56/87/153 48/67/154 58/83/155 60/86/156
