# This file uses centimeters as units for non-parametric coordinates.

mtllib axe.mtl
v 0.159290 -0.374878 -0.232291
v -0.140661 -0.370029 -0.229786
v -0.294988 -0.626624 -0.248291
v -0.149364 -0.888067 -0.269300
v 0.150586 -0.892915 -0.271804
v 0.304913 -0.636320 -0.253299
v 0.255007 -1.964563 13.224268
v -0.044943 -1.959714 13.226771
v -0.199270 -2.216309 13.208266
v -0.053646 -2.477752 13.187258
v 0.246304 -2.482600 13.184754
v 0.400631 -2.226006 13.203259
v 0.004963 -0.631472 -0.250795
v 0.100680 -2.221157 13.205763
v -0.048976 -1.519615 12.659799
v 0.250974 -1.524464 12.657295
v 0.396598 -1.785907 12.636286
v 0.242271 -2.042501 12.617782
v -0.057679 -2.037653 12.620285
v -0.203303 -1.776210 12.641294
v -0.054574 -1.294601 11.872838
v 0.245376 -1.299450 11.870334
v 0.391000 -1.560893 11.849325
v 0.236673 -1.817487 11.830820
v -0.063277 -1.812639 11.833324
v -0.208901 -1.551196 11.854333
v -0.371760 -0.783312 -0.371760
v -0.371760 -0.783312 0.371760
v 0.371760 -0.783312 0.371760
v 0.371760 -0.783312 -0.371760
v 0.000000 2.254332 0.000000
v -0.000000 -2.119045 1.107770
v 0.000000 -2.119045 -1.107770
v 0.009092 -0.971051 0.110960
vt 0.578125 0.020934
vt 0.421875 0.020934
vt 0.343750 0.156250
vt 0.421875 0.291566
vt 0.578125 0.291566
vt 0.656250 0.156250
vt 0.375000 0.312500
vt 0.416667 0.312500
vt 0.458333 0.312500
vt 0.500000 0.312500
vt 0.541667 0.312500
vt 0.583333 0.312500
vt 0.625000 0.312500
vt 0.375000 0.688440
vt 0.416667 0.688440
vt 0.458333 0.688440
vt 0.500000 0.688440
vt 0.541667 0.688440
vt 0.583333 0.688440
vt 0.625000 0.688440
vt 0.578125 0.708434
vt 0.421875 0.708434
vt 0.343750 0.843750
vt 0.421875 0.979066
vt 0.578125 0.979066
vt 0.656250 0.843750
vt 0.500000 0.150000
vt 0.500000 0.837500
vt 0.416667 0.672600
vt 0.625000 0.672600
vt 0.375000 0.672600
vt 0.583333 0.672600
vt 0.541667 0.672600
vt 0.500000 0.672600
vt 0.458333 0.672600
vt 0.416667 0.650615
vt 0.625000 0.650615
vt 0.375000 0.650615
vt 0.583333 0.650615
vt 0.541667 0.650615
vt 0.500000 0.650615
vt 0.458333 0.650615
vt 0.625000 0.125000
vt 0.750000 0.250000
vt 0.500000 0.500000
vt 0.375000 0.375000
vt 0.250000 0.500000
vt 0.375000 0.500000
vt 0.500000 1.000000
vt 0.437500 0.500000
vt 0.457558 0.660467
vt 0.500000 0.500000
vt 0.625000 0.500000
vt 0.687500 0.500000
vt 0.500000 0.000000
vt 0.250000 0.250000
vt 0.750000 0.500000
vn 0.016750 0.996964 0.076043
vn 0.016750 0.996964 0.076043
vn 0.016838 0.995918 0.088679
vn 0.016838 0.995914 0.088728
vn -0.857508 0.512478 0.045250
vn -0.857508 0.512478 0.045250
vn -0.857434 0.511916 0.052429
vn -0.857451 0.512023 0.051082
vn -0.874257 -0.484486 -0.030793
vn -0.874257 -0.484486 -0.030793
vn -0.874285 -0.483956 -0.037592
vn -0.874283 -0.484059 -0.036295
vn -0.016749 -0.996964 -0.076043
vn -0.016749 -0.996964 -0.076043
vn -0.016838 -0.995914 -0.088728
vn -0.016838 -0.995918 -0.088679
vn 0.857508 -0.512478 -0.045250
vn 0.857508 -0.512478 -0.045250
vn 0.857451 -0.512023 -0.051082
vn 0.857434 -0.511916 -0.052429
vn 0.874257 0.484486 0.030793
vn 0.874257 0.484486 0.030793
vn 0.874283 0.484058 0.036295
vn 0.874285 0.483956 0.037592
vn -0.007093 0.076172 -0.997070
vn -0.007093 0.076171 -0.997070
vn -0.007092 0.076171 -0.997070
vn -0.007092 0.076171 -0.997070
vn -0.007093 0.076171 -0.997070
vn -0.007093 0.076172 -0.997070
vn -0.007092 0.076171 -0.997070
vn 0.007087 -0.076172 0.997070
vn 0.007091 -0.076171 0.997070
vn 0.007091 -0.076171 0.997070
vn 0.007092 -0.076171 0.997070
vn 0.007089 -0.076171 0.997070
vn 0.007094 -0.076170 0.997070
vn 0.007093 -0.076171 0.997070
vn 0.018185 0.897123 0.441407
vn 0.018184 0.897780 0.440068
vn 0.017883 0.789881 0.612999
vn 0.017883 0.789881 0.612999
vn 0.856027 0.457462 0.240723
vn 0.863212 0.465015 0.196533
vn 0.834589 0.438020 0.334066
vn 0.834589 0.438020 0.334066
vn 0.834441 -0.482690 -0.265929
vn 0.842786 -0.490981 -0.220566
vn 0.809696 -0.460776 -0.363426
vn 0.809696 -0.460776 -0.363426
vn -0.018185 -0.897780 -0.440068
vn -0.018185 -0.897123 -0.441408
vn -0.017883 -0.789881 -0.612999
vn -0.017883 -0.789881 -0.612999
vn -0.863212 -0.465016 -0.196533
vn -0.856026 -0.457463 -0.240724
vn -0.834587 -0.438021 -0.334067
vn -0.834587 -0.438021 -0.334067
vn -0.842786 0.490981 0.220567
vn -0.834441 0.482691 0.265929
vn -0.809695 0.460777 0.363427
vn -0.809695 0.460777 0.363427
vn 0.000000 -1.000000 -0.000000
vn 0.963383 -0.268128 0.000000
vn 0.963383 -0.268128 0.000000
vn -0.000000 -1.000000 -0.000000
vn -0.992594 0.121478 -0.000000
vn -0.992594 0.121478 -0.000000
vn -0.992594 0.121478 -0.000000
vn 0.610416 0.160925 0.775561
vn 0.012269 0.655532 0.755068
vn 0.000433 0.280906 0.959735
vn 0.992594 0.121478 0.000000
vn 0.992594 0.121478 0.000000
vn 0.992594 0.121478 0.000000
vn 0.719815 0.170448 -0.672914
vn 0.000000 0.245544 -0.969386
vn 0.000000 0.245544 -0.969386
vn -0.963383 -0.268128 -0.000000
vn -0.963383 -0.268128 -0.000000
vn 0.011023 0.034411 0.999347
vn -0.628823 0.156785 0.761577
vn -0.719815 0.170448 -0.672914
s 1
usemtl initialShadingGroup
f 1/7/1 2/8/2 21/36/3 22/38/4
s 2
f 2/8/5 3/9/6 26/42/7 21/36/8
s 3
f 3/9/9 4/10/10 25/41/11 26/42/12
s 4
f 4/10/13 5/11/14 24/40/15 25/41/16
s 5
f 5/11/17 6/12/18 23/39/19 24/40/20
s 6
f 6/12/21 1/13/22 22/37/23 23/39/24
s 7
f 2/2/25 1/1/26 13/27/27
f 3/3/28 2/2/25 13/27/27
f 4/4/29 3/3/28 13/27/27
f 5/5/30 4/4/29 13/27/27
f 6/6/31 5/5/30 13/27/27
f 1/1/26 6/6/31 13/27/27
s 8
f 7/25/32 8/24/33 14/28/34
f 8/24/33 9/23/35 14/28/34
f 9/23/35 10/22/36 14/28/34
f 10/22/36 11/21/37 14/28/34
f 11/21/37 12/26/38 14/28/34
f 12/26/38 7/25/32 14/28/34
s 1
f 16/31/39 15/29/40 8/15/41 7/14/42
s 6
f 17/32/43 16/30/44 7/20/45 12/19/46
s 5
f 18/33/47 17/32/48 12/19/49 11/18/50
s 4
f 19/34/51 18/33/52 11/18/53 10/17/54
s 3
f 20/35/55 19/34/56 10/17/57 9/16/58
s 2
f 15/29/59 20/35/60 9/16/61 8/15/62
s 1
f 22/38/4 21/36/3 15/29/40 16/31/39
s 6
f 23/39/24 22/37/23 16/30/44 17/32/43
s 5
f 24/40/20 23/39/19 17/32/48 18/33/47
s 4
f 25/41/16 24/40/15 18/33/52 19/34/51
s 3
f 26/42/12 25/41/11 19/34/56 20/35/55
s 2
f 21/36/8 26/42/7 20/35/60 15/29/59
s 9
f 33/43/63 30/44/64 29/45/65 32/46/66
s off
f 27/47/67 28/48/68 31/49/69
s 10
f 28/48/70 32/50/71 34/51/72
s off
f 29/52/73 30/53/74 31/49/75
s 11
f 30/53/76 33/54/77 31/49/78
s 9
f 27/55/79 33/43/63 32/46/66 28/56/80
s 10
f 31/49/81 34/51/72 29/52/82
s 11
f 31/49/78 33/54/77 27/57/83
s 10
f 29/52/82 34/51/72 32/50/71
f 28/48/70 34/51/72 31/49/81
