# This file uses centimeters as units for non-parametric coordinates.

mtllib light_bulb.mtl
v 0.050000 0.104246 -0.086603
v -0.050000 0.104246 -0.086603
v -0.100000 0.104246 -0.000000
v -0.050000 0.104246 0.086603
v 0.050000 0.104246 0.086603
v 0.100000 0.104246 0.000000
v 0.050000 1.124115 -0.086603
v -0.050000 1.124115 -0.086603
v -0.100000 1.124115 -0.000000
v -0.050000 1.124115 0.086603
v 0.050000 1.124115 0.086603
v 0.100000 1.124115 0.000000
v 0.000000 0.104246 0.000000
v 0.000000 1.124115 0.000000
v 0.500000 -1.000000 -0.866025
v -0.500000 -1.000000 -0.866026
v -1.000000 -1.000000 -0.000000
v -0.500000 -1.000000 0.866025
v 0.500000 -1.000000 0.866025
v 1.000000 -1.000000 0.000000
v 0.144789 0.139783 -0.250781
v -0.144789 0.139783 -0.250781
v -0.289577 0.139783 -0.000000
v -0.144789 0.139783 0.250781
v 0.144789 0.139783 0.250781
v 0.289577 0.139783 -0.000000
v 0.000000 -0.356923 0.000000
v 0.000000 0.139783 -0.000000
v 0.093442 -1.081089 -0.161846
v -0.093442 -1.081089 -0.161846
v -0.186884 -1.081089 -0.000000
v -0.093442 -1.081089 0.161846
v 0.093442 -1.081089 0.161846
v 0.186884 -1.081089 0.000000
v 0.161846 -0.944281 -0.280325
v -0.161846 -0.944281 -0.280325
v -0.323692 -0.944281 -0.000000
v -0.161846 -0.944281 0.280325
v 0.161846 -0.944281 0.280325
v 0.323692 -0.944281 0.000000
v 0.186884 -0.757397 -0.323692
v -0.186883 -0.757397 -0.323692
v -0.373767 -0.757397 -0.000000
v -0.186884 -0.757397 0.323692
v 0.186884 -0.757397 0.323692
v 0.373767 -0.757397 0.000000
v 0.161846 -0.570514 -0.280325
v -0.161846 -0.570514 -0.280325
v -0.323692 -0.570514 -0.000000
v -0.161846 -0.570514 0.280325
v 0.161846 -0.570514 0.280325
v 0.323692 -0.570514 0.000000
v 0.093442 -0.433706 -0.161846
v -0.093442 -0.433706 -0.161846
v -0.186884 -0.433706 -0.000000
v -0.093442 -0.433706 0.161846
v 0.093442 -0.433706 0.161846
v 0.186884 -0.433706 0.000000
v 0.000000 -1.131164 0.000000
v 0.000000 -0.383630 0.000000
vt 0.578125 0.020934
vt 0.421875 0.020934
vt 0.343750 0.156250
vt 0.421875 0.291566
vt 0.578125 0.291566
vt 0.656250 0.156250
vt 0.375000 0.312500
vt 0.416667 0.312500
vt 0.458333 0.312500
vt 0.500000 0.312500
vt 0.541667 0.312500
vt 0.583333 0.312500
vt 0.625000 0.312500
vt 0.375000 0.688440
vt 0.416667 0.688440
vt 0.458333 0.688440
vt 0.500000 0.688440
vt 0.541667 0.688440
vt 0.583333 0.688440
vt 0.625000 0.688440
vt 0.578125 0.708434
vt 0.421875 0.708434
vt 0.343750 0.843750
vt 0.421875 0.979066
vt 0.578125 0.979066
vt 0.656250 0.843750
vt 0.500000 0.150000
vt 0.500000 0.837500
vt 0.375000 0.312500
vt 0.416667 0.312500
vt 0.416667 0.688440
vt 0.375000 0.688440
vt 0.458333 0.312500
vt 0.458333 0.688440
vt 0.500000 0.312500
vt 0.500000 0.688440
vt 0.541667 0.312500
vt 0.541667 0.688440
vt 0.583333 0.312500
vt 0.583333 0.688440
vt 0.625000 0.312500
vt 0.625000 0.688440
vt 0.421875 0.020934
vt 0.578125 0.020934
vt 0.500000 0.150000
vt 0.343750 0.156250
vt 0.421875 0.291566
vt 0.578125 0.291566
vt 0.656250 0.156250
vt 0.578125 0.979066
vt 0.421875 0.979066
vt 0.500000 0.837500
vt 0.343750 0.843750
vt 0.421875 0.708434
vt 0.578125 0.708434
vt 0.656250 0.843750
vt 0.000000 0.166667
vt 0.166667 0.166667
vt 0.166667 0.333333
vt 0.000000 0.333333
vt 0.333333 0.166667
vt 0.333333 0.333333
vt 0.500000 0.166667
vt 0.500000 0.333333
vt 0.666667 0.166667
vt 0.666667 0.333333
vt 0.833333 0.166667
vt 0.833333 0.333333
vt 1.000000 0.166667
vt 1.000000 0.333333
vt 0.166667 0.500000
vt 0.000000 0.500000
vt 0.333333 0.500000
vt 0.500000 0.500000
vt 0.666667 0.500000
vt 0.833333 0.500000
vt 1.000000 0.500000
vt 0.166667 0.666667
vt 0.000000 0.666667
vt 0.333333 0.666667
vt 0.500000 0.666667
vt 0.666667 0.666667
vt 0.833333 0.666667
vt 1.000000 0.666667
vt 0.166667 0.833333
vt 0.000000 0.833333
vt 0.333333 0.833333
vt 0.500000 0.833333
vt 0.666667 0.833333
vt 0.833333 0.833333
vt 1.000000 0.833333
vt 0.083333 0.000000
vt 0.250000 0.000000
vt 0.416667 0.000000
vt 0.583333 0.000000
vt 0.750000 0.000000
vt 0.916667 0.000000
vt 0.083333 1.000000
vt 0.250000 1.000000
vt 0.416667 1.000000
vt 0.583333 1.000000
vt 0.750000 1.000000
vt 0.916667 1.000000
vn 0.000000 0.000000 -1.000000
vn 0.000000 0.000000 -1.000000
vn 0.000000 0.000000 -1.000000
vn 0.000000 0.000000 -1.000000
vn -0.866025 0.000000 -0.500000
vn -0.866025 0.000000 -0.500000
vn -0.866025 0.000000 -0.500000
vn -0.866025 0.000000 -0.500000
vn -0.866026 0.000000 0.500000
vn -0.866026 0.000000 0.500000
vn -0.866026 0.000000 0.500000
vn -0.866026 0.000000 0.500000
vn -0.000000 0.000000 1.000000
vn -0.000000 0.000000 1.000000
vn -0.000000 0.000000 1.000000
vn -0.000000 0.000000 1.000000
vn 0.866025 0.000000 0.500000
vn 0.866025 0.000000 0.500000
vn 0.866025 0.000000 0.500000
vn 0.866025 0.000000 0.500000
vn 0.866026 0.000000 -0.500000
vn 0.866026 0.000000 -0.500000
vn 0.866026 0.000000 -0.500000
vn 0.866026 0.000000 -0.500000
vn 0.000000 -1.000000 -0.000000
vn 0.000000 -1.000000 -0.000000
vn 0.000000 -1.000000 -0.000000
vn 0.000000 -1.000000 -0.000000
vn 0.000000 -1.000000 -0.000000
vn 0.000000 -1.000000 0.000000
vn 0.000000 -1.000000 0.000000
vn 0.000000 1.000000 0.000000
vn 0.000000 1.000000 -0.000000
vn 0.000000 1.000000 -0.000000
vn 0.000000 1.000000 -0.000000
vn 0.000000 1.000000 0.000000
vn 0.000000 1.000000 0.000000
vn 0.000000 1.000000 0.000000
vn 0.000000 0.475006 -0.879982
vn 0.000000 0.475006 -0.879982
vn 0.000000 0.475006 -0.879982
vn 0.000000 0.475006 -0.879982
vn -0.762087 0.475006 -0.439991
vn -0.762087 0.475006 -0.439991
vn -0.762087 0.475006 -0.439991
vn -0.762087 0.475006 -0.439991
vn -0.762087 0.475006 0.439991
vn -0.762087 0.475006 0.439991
vn -0.762087 0.475006 0.439991
vn -0.762087 0.475006 0.439991
vn -0.000000 0.475006 0.879982
vn -0.000000 0.475006 0.879982
vn -0.000000 0.475006 0.879982
vn -0.000000 0.475006 0.879982
vn 0.762087 0.475006 0.439991
vn 0.762087 0.475006 0.439991
vn 0.762087 0.475006 0.439991
vn 0.762087 0.475006 0.439991
vn 0.762087 0.475006 -0.439991
vn 0.762087 0.475006 -0.439991
vn 0.762087 0.475006 -0.439991
vn 0.762087 0.475006 -0.439991
vn 0.270444 -0.841094 0.468423
vn -0.270444 -0.841094 0.468423
vn 0.000000 -1.000000 -0.000000
vn 0.540889 -0.841094 0.000000
vn 0.270444 -0.841094 -0.468423
vn -0.270444 -0.841094 -0.468423
vn -0.540889 -0.841094 -0.000000
vn 0.000000 1.000000 -0.000000
vn 0.000000 1.000000 -0.000000
vn 0.000000 1.000000 -0.000000
vn 0.000000 1.000000 0.000000
vn 0.000000 1.000000 0.000000
vn 0.000000 1.000000 0.000000
vn 0.000000 1.000000 0.000000
vn 0.000000 -0.654654 -0.755929
vn 0.000000 -0.654654 -0.755929
vn 0.000000 -0.654654 -0.755929
vn 0.000000 -0.654654 -0.755929
vn -0.654653 -0.654654 -0.377965
vn -0.654653 -0.654654 -0.377965
vn -0.654653 -0.654654 -0.377965
vn -0.654653 -0.654654 -0.377965
vn -0.654654 -0.654654 0.377964
vn -0.654654 -0.654654 0.377964
vn -0.654654 -0.654654 0.377964
vn -0.654654 -0.654654 0.377964
vn -0.000000 -0.654654 0.755929
vn -0.000000 -0.654654 0.755929
vn -0.000000 -0.654654 0.755929
vn -0.000000 -0.654654 0.755929
vn 0.654654 -0.654654 0.377965
vn 0.654654 -0.654654 0.377965
vn 0.654653 -0.654654 0.377965
vn 0.654653 -0.654654 0.377965
vn 0.654654 -0.654654 -0.377964
vn 0.654654 -0.654654 -0.377964
vn 0.654654 -0.654654 -0.377964
vn 0.654654 -0.654654 -0.377964
vn 0.000000 -0.226045 -0.974117
vn 0.000000 -0.226045 -0.974117
vn 0.000000 -0.226045 -0.974117
vn 0.000000 -0.226045 -0.974117
vn -0.843610 -0.226044 -0.487059
vn -0.843610 -0.226044 -0.487059
vn -0.843610 -0.226044 -0.487059
vn -0.843610 -0.226044 -0.487059
vn -0.843610 -0.226044 0.487059
vn -0.843610 -0.226044 0.487059
vn -0.843610 -0.226044 0.487059
vn -0.843610 -0.226044 0.487059
vn -0.000000 -0.226045 0.974117
vn -0.000000 -0.226045 0.974117
vn -0.000000 -0.226045 0.974117
vn -0.000000 -0.226045 0.974117
vn 0.843610 -0.226045 0.487058
vn 0.843610 -0.226045 0.487059
vn 0.843610 -0.226045 0.487059
vn 0.843610 -0.226045 0.487059
vn 0.843610 -0.226045 -0.487058
vn 0.843610 -0.226044 -0.487058
vn 0.843610 -0.226045 -0.487058
vn 0.843610 -0.226045 -0.487058
vn 0.000000 0.226044 -0.974117
vn 0.000000 0.226045 -0.974117
vn 0.000000 0.226044 -0.974117
vn 0.000000 0.226044 -0.974117
vn -0.843610 0.226044 -0.487059
vn -0.843610 0.226044 -0.487059
vn -0.843610 0.226045 -0.487059
vn -0.843610 0.226045 -0.487059
vn -0.843610 0.226045 0.487058
vn -0.843610 0.226045 0.487058
vn -0.843610 0.226045 0.487058
vn -0.843610 0.226045 0.487058
vn -0.000000 0.226045 0.974117
vn -0.000000 0.226045 0.974117
vn -0.000000 0.226045 0.974117
vn -0.000000 0.226045 0.974117
vn 0.843610 0.226045 0.487058
vn 0.843610 0.226045 0.487058
vn 0.843610 0.226045 0.487058
vn 0.843610 0.226045 0.487058
vn 0.843610 0.226044 -0.487058
vn 0.843610 0.226044 -0.487058
vn 0.843610 0.226044 -0.487058
vn 0.843610 0.226044 -0.487058
vn 0.000000 0.654654 -0.755929
vn 0.000000 0.654654 -0.755929
vn 0.000000 0.654654 -0.755929
vn 0.000000 0.654654 -0.755929
vn -0.654654 0.654654 -0.377965
vn -0.654654 0.654654 -0.377965
vn -0.654654 0.654654 -0.377965
vn -0.654654 0.654654 -0.377964
vn -0.654654 0.654654 0.377965
vn -0.654654 0.654654 0.377965
vn -0.654654 0.654654 0.377965
vn -0.654654 0.654654 0.377965
vn -0.000000 0.654654 0.755929
vn -0.000000 0.654654 0.755929
vn -0.000000 0.654654 0.755929
vn -0.000000 0.654654 0.755929
vn 0.654654 0.654654 0.377964
vn 0.654654 0.654654 0.377965
vn 0.654654 0.654654 0.377965
vn 0.654654 0.654654 0.377965
vn 0.654654 0.654654 -0.377964
vn 0.654654 0.654654 -0.377964
vn 0.654654 0.654654 -0.377964
vn 0.654654 0.654654 -0.377964
vn 0.000000 -0.955319 -0.295577
vn 0.000000 -0.955319 -0.295577
vn 0.000000 -0.955319 -0.295577
vn -0.255977 -0.955319 -0.147788
vn -0.255977 -0.955319 -0.147788
vn -0.255977 -0.955319 -0.147788
vn -0.255977 -0.955319 0.147789
vn -0.255977 -0.955319 0.147789
vn -0.255977 -0.955319 0.147789
vn -0.000000 -0.955319 0.295577
vn -0.000000 -0.955319 0.295577
vn -0.000000 -0.955319 0.295577
vn 0.255977 -0.955319 0.147788
vn 0.255977 -0.955319 0.147788
vn 0.255977 -0.955319 0.147788
vn 0.255977 -0.955319 -0.147788
vn 0.255977 -0.955319 -0.147788
vn 0.255977 -0.955319 -0.147788
vn 0.000000 0.955319 -0.295577
vn 0.000000 0.955319 -0.295577
vn 0.000000 0.955319 -0.295577
vn -0.255977 0.955319 -0.147789
vn -0.255977 0.955319 -0.147789
vn -0.255977 0.955319 -0.147789
vn -0.255977 0.955319 0.147789
vn -0.255977 0.955319 0.147789
vn -0.255977 0.955319 0.147789
vn -0.000000 0.955319 0.295577
vn -0.000000 0.955319 0.295577
vn -0.000000 0.955319 0.295577
vn 0.255977 0.955319 0.147788
vn 0.255977 0.955319 0.147788
vn 0.255977 0.955319 0.147788
vn 0.255977 0.955319 -0.147788
vn 0.255977 0.955319 -0.147788
vn 0.255977 0.955319 -0.147788
s off
usemtl initialShadingGroup
f 1/7/1 2/8/2 8/15/3 7/14/4
f 2/8/5 3/9/6 9/16/7 8/15/8
f 3/9/9 4/10/10 10/17/11 9/16/12
f 4/10/13 5/11/14 11/18/15 10/17/16
f 5/11/17 6/12/18 12/19/19 11/18/20
f 6/12/21 1/13/22 7/20/23 12/19/24
s 1
f 2/2/25 1/1/26 13/27/27
f 3/3/28 2/2/25 13/27/27
f 4/4/29 3/3/28 13/27/27
f 5/5/30 4/4/29 13/27/27
f 6/6/31 5/5/30 13/27/27
f 1/1/26 6/6/31 13/27/27
s 2
f 7/25/32 8/24/33 14/28/34
f 8/24/33 9/23/35 14/28/34
f 9/23/35 10/22/36 14/28/34
f 10/22/36 11/21/37 14/28/34
f 11/21/37 12/26/38 14/28/34
f 12/26/38 7/25/32 14/28/34
s off
f 15/29/39 16/30/40 22/31/41 21/32/42
f 16/30/43 17/33/44 23/34/45 22/31/46
f 17/33/47 18/35/48 24/36/49 23/34/50
f 18/35/51 19/37/52 25/38/53 24/36/54
f 19/37/55 20/39/56 26/40/57 25/38/58
f 20/39/59 15/41/60 21/42/61 26/40/62
s 3
f 16/43/63 15/44/64 27/45/65
f 17/46/66 16/43/63 27/45/65
f 18/47/67 17/46/66 27/45/65
f 19/48/68 18/47/67 27/45/65
f 20/49/69 19/48/68 27/45/65
f 15/44/64 20/49/69 27/45/65
s 4
f 21/50/70 22/51/71 28/52/72
f 22/51/71 23/53/73 28/52/72
f 23/53/73 24/54/74 28/52/72
f 24/54/74 25/55/75 28/52/72
f 25/55/75 26/56/76 28/52/72
f 26/56/76 21/50/70 28/52/72
s off
f 29/57/77 30/58/78 36/59/79 35/60/80
f 30/58/81 31/61/82 37/62/83 36/59/84
f 31/61/85 32/63/86 38/64/87 37/62/88
f 32/63/89 33/65/90 39/66/91 38/64/92
f 33/65/93 34/67/94 40/68/95 39/66/96
f 34/67/97 29/69/98 35/70/99 40/68/100
f 35/60/101 36/59/102 42/71/103 41/72/104
f 36/59/105 37/62/106 43/73/107 42/71/108
f 37/62/109 38/64/110 44/74/111 43/73/112
f 38/64/113 39/66/114 45/75/115 44/74/116
f 39/66/117 40/68/118 46/76/119 45/75/120
f 40/68/121 35/70/122 41/77/123 46/76/124
f 41/72/125 42/71/126 48/78/127 47/79/128
f 42/71/129 43/73/130 49/80/131 48/78/132
f 43/73/133 44/74/134 50/81/135 49/80/136
f 44/74/137 45/75/138 51/82/139 50/81/140
f 45/75/141 46/76/142 52/83/143 51/82/144
f 46/76/145 41/77/146 47/84/147 52/83/148
f 47/79/149 48/78/150 54/85/151 53/86/152
f 48/78/153 49/80/154 55/87/155 54/85/156
f 49/80/157 50/81/158 56/88/159 55/87/160
f 50/81/161 51/82/162 57/89/163 56/88/164
f 51/82/165 52/83/166 58/90/167 57/89/168
f 52/83/169 47/84/170 53/91/171 58/90/172
f 30/58/173 29/57/174 59/92/175
f 31/61/176 30/58/177 59/93/178
f 32/63/179 31/61/180 59/94/181
f 33/65/182 32/63/183 59/95/184
f 34/67/185 33/65/186 59/96/187
f 29/69/188 34/67/189 59/97/190
f 53/86/191 54/85/192 60/98/193
f 54/85/194 55/87/195 60/99/196
f 55/87/197 56/88/198 60/100/199
f 56/88/200 57/89/201 60/101/202
f 57/89/203 58/90/204 60/102/205
f 58/90/206 53/91/207 60/103/208
